<svg width="29" height="32" viewBox="0 0 29 32" fill="none" xmlns="http://www.w3.org/2000/svg">
<path d="M19.7135 12.4848C21.5661 14.3395 23.0772 17.3728 22.2128 19.1717C19.8947 23.9936 2.60438 32.4444 1.13245 30.9829C-0.334269 29.5228 8.16096 12.2992 13.0018 9.99013C14.8114 9.13349 17.8569 10.6521 19.7187 12.4822L19.7122 12.5003V12.4848H19.7135ZM28.8762 10.4522C28.5751 9.34246 27.8059 8.22363 26.6599 8.08995C24.5608 7.84853 21.248 11.5464 21.4827 12.4238C21.7187 13.3193 26.3926 14.8574 28.1318 13.6114C29.0327 12.9702 29.15 11.5866 28.8567 10.4781L28.8762 10.4522ZM22.3692 0.204983C23.9311 0.625514 25.5073 1.69501 25.6951 3.29667C26.0354 6.22871 20.8295 10.8494 19.5935 10.5184C18.3576 10.1926 16.1803 3.66009 17.9391 1.22256C18.8452 -0.0390294 20.8086 -0.212953 22.3705 0.199791V0.204983H22.3692V0.204983Z" fill="#FFFFFF"/>
</svg>
