<svg width="126" height="286" viewBox="0 0 126 286" fill="none" xmlns="http://www.w3.org/2000/svg">
<path d="M125.906 278.68C125.906 278.68 97.8853 286 63.3201 286C28.7547 286 0.734131 278.68 0.734131 278.68C0.734131 278.68 28.7547 271.36 63.3201 271.36C97.8853 271.36 125.906 278.68 125.906 278.68Z" fill="#CBB59B"/>
<path d="M85.076 50.1493C85.076 50.1493 89.7595 51.077 90.4206 51.7372C92.1982 53.5113 98.4857 91.425 98.4857 91.425L87.0773 92.1837L81.9395 53.8558L85.076 50.1493Z" fill="#F574A9"/>
<path d="M102.919 271.897L70.0782 272.818C70.0389 269.502 70.1426 266.715 70.2151 265.215C70.5273 265.232 70.8646 265.241 71.201 265.241C71.8594 265.257 72.5492 265.275 73.2309 265.284C75.3646 265.309 77.3623 265.284 77.8114 265.13C78.8618 264.78 81.0599 257.561 81.0599 257.561V257.552L81.5492 257.527L84.4935 257.365C85.1117 258.771 86.7077 262.078 88.5041 263.596C90.8311 265.547 99.39 268.974 101.724 270.074C102.527 270.458 102.824 271.232 102.919 271.897Z" fill="#DCDDDA"/>
<path d="M103.032 275.741L70.2071 276.662C70.1427 275.332 70.1024 274.037 70.0782 272.818L102.919 271.897L103.032 275.741Z" fill="white"/>
<path d="M50.3291 276.542C50.3291 278.076 39.1706 281.163 37.0368 280.966C34.9109 280.779 27.114 274.813 27.114 274.813C27.114 274.813 27.4187 273.594 27.908 271.701C28.4455 269.605 29.2076 266.698 30.0419 263.716C31.1486 263.417 32.4242 263.025 32.737 262.751C33.3066 262.24 35.0231 257.987 35.8818 257.987C36.7401 257.987 44.168 257.987 44.6496 258.703C45.1231 259.411 45.3149 262.956 46.0775 263.357C46.4064 263.536 47.3929 263.818 48.3878 264.064C48.9651 267.081 49.4946 270.031 49.751 271.795C50.0883 274.096 50.3291 276.006 50.3291 276.542Z" fill="#DCDDDA"/>
<path d="M27.1116 274.815C27.1116 274.815 34.9123 280.776 37.0392 280.969C39.1668 281.159 50.3329 278.083 50.3329 276.544C50.3329 276.004 50.0918 274.096 49.751 271.795C46.1176 273.34 38.335 276.4 35.7679 275.399C34.0265 274.72 30.7121 273.106 27.9038 271.699C27.4159 273.593 27.1116 274.815 27.1116 274.815Z" fill="white"/>
<path d="M96.8218 264.063L67.097 266.559L63.0442 266.903C62.3873 254.165 64.8516 213.659 65.4461 208.588C65.4699 208.433 65.4856 208.307 65.501 208.221C66.3306 203.307 68.6694 190.178 68.6694 190.178L65.9783 151.573L65.9703 151.683C65.7354 154.038 62.0738 191.641 61.6436 194.153C61.3231 195.977 58.5844 247.335 55.7987 264.063L25.5975 264.908L19.291 265.088C20.1908 253.766 31.747 216.898 34.0162 209.364C34.188 208.823 34.2978 208.433 34.3603 208.221C35.7844 203.002 42.1849 185.476 42.1849 185.476C42.1849 185.476 37.7795 147.505 38.7185 143.272C39.6572 139.046 42.1849 127.233 42.1849 127.233C42.1849 127.233 50.6507 129.893 54.5078 130.339C58.3732 130.8 81.392 129.736 81.392 129.736L89.772 127.233C89.772 127.233 90.0216 129.657 90.3902 132.89C90.8438 136.77 91.4853 141.808 92.1115 145.173C93.254 151.347 89.0751 195.609 89.0751 195.609L96.8218 264.063Z" fill="#46689C"/>
<path d="M90.3902 132.89C87.8164 133.656 83.4658 134.9 82.6758 134.9C81.5325 134.9 56.6598 136.723 55.3685 136.113C54.0857 135.51 45.0719 134.751 45.0719 134.751C45.0719 134.751 41.731 149.633 42.1849 152.215C42.6462 154.796 45.7918 184.873 45.7918 184.873C45.7918 184.873 40.0724 204.622 39.3525 210.701C38.9768 213.893 28.3045 249.213 25.5975 264.908L19.291 265.088C20.1908 253.766 31.747 216.898 34.0162 209.364C34.188 208.823 34.2978 208.433 34.3603 208.22C35.7844 203.002 42.1849 185.476 42.1849 185.476C42.1849 185.476 37.7795 147.505 38.7185 143.272C39.6572 139.046 42.1849 127.233 42.1849 127.233C42.1849 127.233 50.6507 129.893 54.5078 130.339C58.3732 130.8 81.392 129.736 81.392 129.736L89.772 127.233C89.772 127.233 90.0216 129.657 90.3902 132.89Z" fill="#2C507E"/>
<path d="M72.1905 188.622C72.1905 188.622 67.3082 205.819 67.3708 207.854C67.4022 208.925 66.4398 248.633 67.0968 266.559L63.044 266.903C62.3871 254.165 64.8514 213.659 65.4463 208.588C65.4697 208.433 65.4854 208.307 65.5008 208.221C66.3304 203.307 68.6692 190.178 68.6692 190.178L65.9781 151.573L74.0996 148.318L68.5681 155.807L72.1905 188.622Z" fill="#2C507E"/>
<path d="M53.3166 49.2627L40.7327 52.9594L44.0792 94.7978L37.7581 146.102C37.7581 146.102 78.3823 153.539 92.6052 144.336L85.6333 97.0353C85.6333 97.0353 92.0478 87.1639 92.6052 81.0285C93.1634 74.8931 85.0759 50.1493 85.0759 50.1493L77.9806 49.6054L53.3166 49.2627Z" fill="#F574A9"/>
<path d="M79.3504 16.3258C79.014 21.9674 76.017 27.2171 72.0815 31.3879C68.138 35.5497 64.4808 39.7196 59.6687 42.9126C58.1041 41.7308 46.6451 33.8446 44.7122 29.1182C44.2973 28.1404 43.9532 27.1312 43.6872 26.0988C40.7534 14.8702 45.6589 5.48913 56.433 1.89806C60.572 0.513168 67.9269 0.0434647 71.7997 2.03134C75.516 3.9396 77.9816 7.60224 78.9353 11.6075C79.303 13.157 79.4443 14.7531 79.3504 16.3258Z" fill="#300C21"/>
<path d="M77.9815 49.6053L69.8868 46.5823L68.798 45.9239L68.1993 45.9454L60.0466 46.2478L59.3868 46.2719L58.4157 46.7729L53.3167 49.2627C55.9799 53.4191 61.9974 61.9593 66.5995 61.7858C71.0641 61.6176 75.4541 54.1599 77.9815 49.6053Z" fill="#C7614F"/>
<path d="M57.5527 47.2175C57.5527 47.2175 66.1856 48.963 67.4703 48.411C68.7559 47.8662 70.5192 46.9661 70.5192 46.9661C70.2302 46.6441 68.2357 43.6256 68.2807 42.6012C68.3849 40.2385 69.0815 36.9176 69.0815 36.9176L61.0579 34.5951C61.0579 34.5951 60.8444 36.8684 60.5083 39.2794C60.1692 41.7227 58.0347 46.8221 57.5527 47.2175Z" fill="#C7614F"/>
<path d="M60.5094 39.2759C62.7582 40.7869 65.518 42.5699 66.4032 42.8231C67.1258 43.028 67.7814 42.8508 68.278 42.6012C68.3864 40.2367 69.0844 36.9194 69.0844 36.9194L61.0602 34.596C61.0602 34.596 60.8432 36.8729 60.5094 39.2759Z" fill="#974237"/>
<path d="M55.6077 12.6945C59.6881 7.5262 66.8668 5.67698 72.7263 8.68206C74.0736 9.37272 75.1624 10.1788 75.6804 11.1002C77.7506 14.7861 81.126 28.5617 78.5772 35.3905C76.0275 42.2201 71.4443 41.5295 69.8044 41.1403C68.1644 40.7502 60.4118 37.9626 58.5328 35.573C56.653 33.1843 52.2511 20.5887 52.9238 17.2159C53.1485 16.0896 54.2459 14.4194 55.6077 12.6945Z" fill="#E27062"/>
<path d="M55.0399 11.7175C59.1203 6.54923 66.2986 4.70095 72.1592 7.70513C73.5065 8.39579 74.5953 9.20184 75.1124 10.1233C77.1826 13.8092 80.558 27.5848 78.0092 34.4144C75.4595 41.2432 70.8763 40.5534 69.2364 40.1633C67.5973 39.7733 59.8444 36.9856 57.9649 34.596C56.0858 32.2073 51.6833 19.6127 52.356 16.239C52.581 15.1127 53.678 13.4433 55.0399 11.7175Z" fill="#C7614F"/>
<path d="M70.4613 28.432C70.1106 28.3944 69.7465 28.2978 69.4146 28.4159C69.9451 29.1093 70.7574 29.5798 71.6225 29.6952L71.8229 29.6926L72.0251 29.5557C72.3982 29.1915 72.6987 28.7532 72.9036 28.2746C72.9457 28.177 72.9832 28.075 72.9823 27.9695C72.9788 27.6206 72.7694 27.7485 72.5923 27.8746C72.3865 28.0205 72.162 28.1404 71.9267 28.2316C71.4633 28.4123 70.956 28.4857 70.4613 28.432Z" fill="#E27062"/>
<path d="M71.6458 29.4886C71.8032 29.2586 71.992 29.0502 72.1548 28.8238C72.3561 28.5438 72.536 28.2486 72.6791 27.9346C71.4221 27.4604 71.1564 26.3359 70.8943 25.0521C70.7762 24.4724 70.7959 23.8667 70.9516 23.2968C71.0321 22.9971 71.1502 22.7072 71.3023 22.4361C71.3792 22.2984 71.4642 22.166 71.5572 22.0381C71.6485 21.9137 71.754 21.8305 71.8784 21.7401C71.831 21.8323 71.8077 21.9307 71.7666 22.0237C71.661 22.2653 71.5438 22.4952 71.4642 22.7475C71.3837 23.0007 71.3255 23.261 71.2888 23.524C71.2164 24.0492 71.2307 24.5886 71.3398 25.1084C71.4463 25.6184 71.6467 26.1104 71.9482 26.5363C72.2926 27.0229 72.799 27.464 73.3662 27.6573C73.3715 27.659 72.8437 28.6941 72.7882 28.7809C72.646 29.0063 72.4832 29.2193 72.298 29.4116C72.1173 29.6004 71.9106 29.8232 71.6458 29.8777C71.5626 29.8947 71.474 29.8965 71.3953 29.8661L71.4955 29.7328L71.5331 29.6702L71.6458 29.4886Z" fill="#974237"/>
<path d="M64.9316 31.8745C67.692 33.2236 71.0446 33.2979 73.8618 32.0714C72.51 33.1244 70.9829 33.8275 69.2696 33.8087C67.5565 33.79 66.2596 32.957 64.9316 31.8745Z" fill="#974237"/>
<path d="M67.7278 34.707C68.8841 35.3341 70.3486 35.3529 71.5197 34.7562C71.0929 35.3583 70.473 35.7546 69.7358 35.7895C68.9995 35.8253 68.21 35.2652 67.7278 34.707Z" fill="#974237"/>
<path d="M57.4498 28.6942C57.035 28.5206 54.8499 25.9521 53.5023 27.6582C52.155 29.3642 51.915 32.0768 53.3503 33.5144C54.6604 34.826 56.4608 36.2207 58.5329 35.573L57.4498 28.6942Z" fill="#C7614F"/>
<path d="M53.6581 29.7114C53.5944 30.0755 53.6731 30.4449 53.8062 30.7921C54.3728 32.2655 55.8572 33.3239 57.2765 34.3035C56.8225 33.6003 56.6208 32.7862 56.653 31.9784C56.6646 31.6974 56.7033 31.4174 56.6879 31.1365C56.6268 30.0084 54.0341 27.5598 53.6581 29.7114Z" fill="#E27062"/>
<path d="M57.9824 34.6882L57.9028 34.6471C57.8517 34.6184 57.7699 34.5817 57.6763 34.5227C57.4869 34.4055 57.2238 34.2149 56.9686 33.9242C56.7145 33.6343 56.4762 33.2407 56.3445 32.7647C56.2228 32.2897 56.2065 31.7287 56.4147 31.1741L56.5004 30.9701L56.5241 30.92L56.5273 30.9146L56.5269 30.9164L56.5283 30.9155H56.5286L56.5241 30.9075L56.4993 30.8663L56.4483 30.7831L56.3434 30.6212C56.2019 30.4092 56.0505 30.2115 55.8965 30.0281C55.7423 29.8456 55.5843 29.6774 55.4285 29.5253C55.2719 29.3732 55.1217 29.2318 54.9742 29.1289C54.8275 29.0252 54.6691 28.9617 54.5241 28.9509C54.3787 28.9429 54.2445 28.9867 54.1558 29.0404C54.066 29.0959 54.0187 29.162 54.0002 29.2112L53.9811 29.2873L53.9803 29.2076C53.9863 29.154 54.0187 29.0726 54.1065 28.9939C54.1942 28.9169 54.334 28.8408 54.5245 28.8238C54.7149 28.8095 54.9249 28.865 55.115 28.9634C55.3073 29.0627 55.482 29.1898 55.6668 29.3311C55.8507 29.4734 56.0376 29.6353 56.219 29.8169C56.4004 29.9985 56.5772 30.1998 56.7398 30.4199L56.8592 30.5881L56.9169 30.6749L56.9937 30.7983L57.0472 30.8842L57.0067 30.9763L56.9459 31.1087L56.8725 31.285C56.6912 31.7672 56.6754 32.2592 56.7429 32.6967C56.8194 33.1333 56.9833 33.5153 57.1723 33.8141C57.3622 34.1138 57.5711 34.3321 57.7266 34.4753L57.9149 34.6327L57.9824 34.6882Z" fill="#974237"/>
<path d="M77.2453 17.9442C77.2453 17.9442 75.1626 16.5065 73.9191 16.6917C72.6737 16.8778 72.3579 18.0453 72.8625 18.2466C73.368 18.4479 77.2453 17.9442 77.2453 17.9442Z" fill="#470A27"/>
<path d="M59.6687 20.8258C59.6687 20.8258 62.419 18.1375 64.3407 17.666C66.2624 17.1945 67.0484 18.2905 66.3431 18.7825C65.6376 19.2754 59.6687 20.8258 59.6687 20.8258Z" fill="#470A27"/>
<path d="M65.2261 29.4215C65.1789 30.0209 63.8579 30.4047 62.2758 30.2803C60.6939 30.1551 59.4498 29.5691 59.4973 28.9697C59.5444 28.3703 60.8651 27.9856 62.4471 28.1108C64.0295 28.2361 65.2736 28.823 65.2261 29.4215Z" fill="#E27062"/>
<path d="M80.3773 25.5656C80.5929 25.9664 79.7886 26.8172 78.5809 27.4667C77.3731 28.1153 76.219 28.3166 76.0043 27.9158C75.7878 27.5159 76.593 26.6642 77.8007 26.0147C79.0085 25.3652 80.1626 25.1639 80.3773 25.5656Z" fill="#E27062"/>
<path d="M52.3802 31.0417C50.0287 27.9212 47.8123 23.9096 47.1567 20.0574C46.5022 16.2051 47.1637 12.0387 49.4657 8.88067C51.552 6.01962 54.8066 4.18654 58.1946 3.15592C63.0257 1.68693 68.5352 1.78532 72.8375 4.42986C77.1389 7.07261 79.7977 12.5979 78.2303 17.3976C76.8938 15.509 74.9909 14.0266 72.833 13.1928C72.6782 14.1045 72.3213 14.9812 71.7952 15.7416C71.3542 14.3585 70.6054 13.0738 69.6186 12.0083C69.3761 13.5292 68.4389 14.9248 67.1232 15.7237C66.9358 14.2574 66.3593 12.8439 65.4678 11.6648C64.6765 13.7815 63.0806 15.5851 61.076 16.6282C61.0785 15.2549 61.0802 13.8817 61.082 12.5084C60.5236 15.6012 58.4879 18.3942 55.7142 19.8731C55.7142 19.8731 56.2583 26.9138 55.9626 28.1225C55.9626 28.1225 54.7566 27.2207 53.6355 28.0876C52.5151 28.9536 52.3802 31.0417 52.3802 31.0417Z" fill="#300C21"/>
<path d="M64.3798 22.811C63.1 22.972 61.966 23.7763 61.1696 24.7917C63.0186 24.1297 65.1102 23.958 67.0382 24.3346L67.6505 24.3901C67.0665 23.2396 65.6602 22.65 64.3798 22.811Z" fill="#121414"/>
<path d="M75.1778 21.6158C76.0609 21.436 76.9913 21.7151 77.7454 22.2089C76.374 22.1848 74.9515 22.5382 73.759 23.2181L73.3662 23.3916C73.4959 22.4997 74.2948 21.7947 75.1778 21.6158Z" fill="#121414"/>
<path d="M70.7198 6.43654C71.1108 7.41438 71.1108 8.54073 70.7127 9.51141C69.7026 7.70335 68.0597 6.26386 66.1429 5.50521C66.5339 6.85074 66.6824 8.26695 66.5888 9.66705C65.5251 8.11039 63.8427 6.99924 61.9961 6.61634C62.3792 8.08712 62.3403 9.65992 61.8787 11.0994C60.9788 9.40137 59.445 8.04776 57.6456 7.35979C56.9963 13.5721 52.8261 19.6127 47.3412 22.5937C46.1754 24.6352 45.2832 26.8342 44.7122 29.1182C44.2973 28.1404 43.9532 27.1312 43.6872 26.0988C43.0928 23.8372 42.8265 21.6543 42.858 19.5725C42.9673 11.3266 47.8263 4.76984 56.433 1.89806C60.572 0.513165 67.9269 0.0434589 71.7997 2.03134C73.7714 3.04764 75.3988 4.55063 76.6119 6.34974C77.7069 7.93056 78.4897 9.73057 78.9353 11.6075C76.5332 9.40939 73.7401 7.64072 70.7198 6.43654Z" fill="#470A27"/>
<path d="M68.2319 5.12139C66.8703 3.68192 64.9374 2.79802 62.9584 2.70409C63.1226 3.58799 63.2869 4.4719 63.4511 5.3558C62.3555 4.44058 60.9399 3.90113 59.5077 3.86982C59.5622 4.66783 59.6172 5.46583 59.672 6.26384C58.4436 5.21533 56.8553 4.59716 55.2355 4.54259C54.2266 11.2872 49.2345 17.2258 42.8578 19.5724C42.9671 11.3266 47.8261 4.76982 56.4328 1.89804C60.5718 0.513147 67.9267 0.0434418 71.7995 2.03132C73.7713 3.04762 75.3986 4.55061 76.6117 6.34972C73.8571 4.87894 70.861 3.85371 67.7855 3.32229C67.934 3.92438 68.0833 4.5193 68.2319 5.12139Z" fill="#630D30"/>
<path d="M40.7327 52.9593C40.7327 52.9593 32.2735 56.672 31.1576 59.2754C30.0422 61.8788 22.6055 98.1535 22.2336 100.002C22.2336 100.002 41.3834 104.827 48.0768 102.595L49.0063 81.7728L40.7327 52.9593Z" fill="#F574A9"/>
<path d="M40.7327 56.9046C40.7327 56.9046 49.1922 69.4546 49.0062 71.2671C48.8207 73.0805 44.871 99.101 44.871 99.101C44.871 99.101 51.888 73.6379 51.0514 70.9889C50.2151 68.339 40.7327 56.9046 40.7327 56.9046Z" fill="#F14A8F"/>
<path d="M56.7351 73.4957C53.8712 78.9261 42.018 80.5687 41.3914 80.6474L41.3683 80.6554C41.3683 80.6554 44.248 74.9825 45.4369 70.7026C46.6264 66.4307 36.9081 51.1817 40.2574 44.9532C43.5983 38.7248 50.0921 34.563 50.0921 34.563L50.6324 35.0469L51.4696 35.7913L51.6496 35.947L52.8543 36.9955L50.8906 41.7603C50.8906 41.7603 56.8917 48.6776 57.4938 50.4696C58.0963 52.2606 59.6849 67.9176 56.7351 73.4957Z" fill="#300C21"/>
<path d="M51.5165 75.0765C50.0606 76.7897 41.9002 80.4202 41.3914 80.6474L41.3683 80.6554C41.3683 80.6554 44.248 74.9825 45.4369 70.7026C46.6264 66.4307 36.9081 51.1817 40.2574 44.9532C43.5983 38.7248 50.0924 34.563 50.0924 34.563L50.6324 35.0469L51.4696 35.7913L51.6496 35.947C50.7026 37.4813 48.9266 40.1258 48.2458 41.7603C47.0408 44.6786 52.4317 51.2676 52.4317 54.2011C52.4317 57.1355 53.0185 73.3087 51.5165 75.0765Z" fill="#470A27"/>
<path d="M48.6215 61.5953C48.9888 64.2004 48.4416 72.5653 47.7846 73.9573C47.1349 75.3503 41.3683 80.6554 41.3683 80.6554C41.3683 80.6554 44.248 74.9825 45.4369 70.7026C46.6264 66.4307 36.9081 51.1817 40.2574 44.9532C43.5983 38.7248 50.0924 34.563 50.0924 34.563L50.6324 35.0469C47.6276 38.5137 42.4244 44.8826 42.2989 46.0018C42.1117 47.6524 48.2458 58.9901 48.6215 61.5953Z" fill="#630D30"/>
<path d="M70.8951 88.5506L56.6335 89.4237C56.6335 89.4237 50.2662 57.5873 54.1278 48.4611C54.7076 47.0816 55.5236 46.2245 56.6335 46.0697C60.9927 45.465 64.6499 56.7955 67.1636 67.906C69.5308 78.3303 70.8951 88.5506 70.8951 88.5506Z" fill="#FAB663"/>
<path d="M62.8802 58.8836C60.5077 57.2205 57.7532 56.1058 54.8917 55.6504C57.1448 57.8619 59.7262 59.0384 62.8802 58.8836Z" fill="#F7923D"/>
<path d="M63.7328 66.9962C61.3602 65.333 58.6061 64.2174 55.7446 63.7621C57.9977 65.9745 60.5789 67.1509 63.7328 66.9962Z" fill="#F7923D"/>
<path d="M64.6581 75.4755C62.2857 73.8124 59.5308 72.6967 56.6697 72.2414C58.9224 74.4538 61.5038 75.6294 64.6581 75.4755Z" fill="#F7923D"/>
<path d="M67.1636 67.9059C66.7964 66.6812 66.4536 65.4484 66.1034 64.2245C65.05 60.5995 63.8584 56.9342 61.6623 53.8656C59.8172 51.3024 57.1563 49.1875 54.1278 48.4611C54.7076 47.0815 55.5236 46.2245 56.6335 46.0697C60.9928 45.4649 64.65 56.7955 67.1636 67.9059Z" fill="#F7923D"/>
<path d="M75.5274 79.759C75.4746 82.5601 75.4155 85.0982 75.3744 86.7819C75.3449 87.9512 74.5773 88.878 73.6397 88.878H64.5327C63.5944 88.878 62.8272 87.9512 62.7975 86.7819C62.756 85.0982 62.6972 82.5601 62.6442 79.759C62.5791 76.346 62.532 72.5509 62.5438 69.4475C62.5613 66.1158 62.6442 63.593 62.8507 63.1814C63.5471 61.835 65.9194 60.4904 65.9194 60.4904L66.4799 49.2448H71.6858L72.2521 60.4904C72.2521 60.4904 74.6247 61.835 75.3207 63.1814C75.5274 63.593 75.6106 66.1158 75.6222 69.4475C75.6401 72.5509 75.5927 76.346 75.5274 79.759Z" fill="#2EAE7D"/>
<path d="M71.7522 50.1896H66.4196C66.0306 50.1896 65.7155 49.8746 65.7155 49.4855V48.8789C65.7155 48.4888 66.0306 48.1739 66.4196 48.1739H71.7522C72.1404 48.1739 72.4563 48.4888 72.4563 48.8789V49.4855C72.4563 49.8746 72.1404 50.1896 71.7522 50.1896Z" fill="#363950"/>
<path d="M75.5274 79.759H62.6442C62.5791 76.346 62.532 72.5509 62.5438 69.4474H75.6222C75.6401 72.5509 75.5927 76.346 75.5274 79.759Z" fill="#20795A"/>
<path d="M95.8135 58.438C96.0094 57.2544 96.1346 56.0198 95.7902 54.8711C95.4458 53.7206 94.5314 52.6703 93.3434 52.4968C91.7939 52.2704 90.4116 53.5596 89.7022 54.9561C88.7977 56.7364 88.566 58.7977 88.7109 60.79C88.8425 62.5954 89.2146 68.9071 91.8171 67.515C94.3266 66.1731 95.4019 60.9242 95.8135 58.438Z" fill="#20795A"/>
<path d="M89.6449 74.0011L90.4876 73.9099C90.6236 73.4071 91.9996 67.8434 92.1177 67.3316C92.8137 64.2747 93.1537 61.1336 93.1215 57.9899C93.1197 57.4853 92.3333 57.479 92.3395 57.9827C92.3708 61.2642 91.9969 64.5279 91.2266 67.702C91.1246 68.118 89.7648 73.5878 89.6449 74.0011Z" fill="#51C292"/>
<path d="M102.008 58.5758C102.95 57.8333 103.971 57.1283 105.143 56.8751C106.316 56.6219 107.679 56.9153 108.403 57.8717C109.35 59.1197 108.887 60.9537 108.007 62.2483C106.883 63.8989 105.191 65.0968 103.375 65.9315C101.73 66.6874 96.0226 69.4071 95.986 66.4557C95.9502 63.6108 100.029 60.136 102.008 58.5758Z" fill="#20795A"/>
<path d="M90.7729 74.0727L90.8454 74.0637L91.9682 73.9349L91.9959 73.9295C92.4871 73.4259 95.595 67.5383 96.105 67.0704C98.516 64.858 101.195 62.9551 104.079 61.4011C104.524 61.1586 104.144 60.4769 103.697 60.7131C100.932 62.2036 98.3442 64.0143 96.0066 66.1033C95.0931 66.9138 91.6067 73.1798 90.7729 74.0727Z" fill="#51C292"/>
<path d="M92.7895 61.5711C93.8765 61.8976 94.9617 62.3521 95.7642 63.1555C96.8467 64.2398 97.2806 65.8608 97.1482 67.3871C96.8673 70.6248 93.9651 73.4268 90.7202 73.5932C87.6534 73.7515 84.4381 71.3637 83.454 68.4633C82.6014 65.9512 84.6027 62.4908 86.9171 61.5308C88.7735 60.7605 90.9135 61.0083 92.7895 61.5711Z" fill="#E83847"/>
<path d="M91.2587 63.2136C91.4922 60.8581 92.3483 58.5669 93.7153 56.6336C94.0624 56.8832 94.3648 57.1891 94.712 57.4388C93.6679 59.4034 92.071 61.1425 91.2587 63.2136Z" fill="#312A2A"/>
<path d="M91.3519 62.7251C91.8314 61.2615 91.6793 59.6029 90.9412 58.2502C90.2041 56.8984 88.8907 55.8722 87.4003 55.4831C86.9413 56.8957 86.9342 58.4371 87.6203 59.7549C88.3074 61.0718 89.9312 62.293 91.3519 62.7251Z" fill="#2EAE7D"/>
<path d="M79.3592 61.5478C80.3916 61.0763 81.5072 60.7024 82.6398 60.7766C84.1696 60.8786 85.5643 61.8108 86.4706 63.0463C88.3941 65.6658 88.0595 69.6863 85.7298 71.9506C83.5282 74.0915 79.5363 74.4162 76.8837 72.8846C74.5872 71.5579 73.8106 67.6367 74.9173 65.3885C75.8048 63.5858 77.577 62.3619 79.3592 61.5478Z" fill="#F1435B"/>
<path d="M79.2902 63.7915C77.9134 61.8663 77.0456 59.5796 76.7996 57.2249C77.2245 57.1838 77.6548 57.2142 78.0798 57.173C78.5897 59.3381 78.5369 61.699 79.2902 63.7915Z" fill="#312A2A"/>
<path d="M79.0399 63.363C78.4351 61.9459 77.2264 60.7999 75.7798 60.2694C74.3332 59.7398 72.6701 59.8337 71.2932 60.5244C71.8792 61.8887 72.891 63.0526 74.275 63.5902C75.6599 64.1279 77.6854 63.9741 79.0399 63.363Z" fill="#20795A"/>
<path d="M79.0818 54.4194C79.0559 54.1322 79.0362 53.8352 79.131 53.5623C79.225 53.2903 79.4629 53.047 79.7519 53.0371C80.1276 53.0246 80.3996 53.3834 80.5839 53.7126C81.1699 54.7548 81.585 55.8928 81.8096 57.0675C81.9017 55.39 82.4913 53.7439 83.4834 52.3894C83.8055 51.9502 84.4192 51.5127 84.8307 51.8679C85.0803 52.0835 85.0732 52.4664 85.0356 52.7938C84.8898 54.0687 84.6008 55.3265 84.1768 56.537C84.8951 55.5931 86.0179 54.9696 87.1988 54.8586C87.5173 54.8282 87.9101 54.8774 88.0398 55.17C88.1588 55.4401 87.9745 55.7434 87.7866 55.9724C87.0432 56.8778 86.111 57.6266 85.066 58.1571C85.5527 57.9174 86.0707 57.6723 86.6102 57.7215C87.1496 57.7698 87.69 58.2412 87.6014 58.7762C87.5334 59.194 87.1362 59.4669 86.7649 59.6709C85.6252 60.2971 81.7899 62.0712 80.5955 61.0656C80.0301 60.5897 79.8333 58.7548 79.6696 58.0569C79.3896 56.8599 79.1927 55.6432 79.0818 54.4194Z" fill="#2EAE7D"/>
<path d="M84.2119 63.6001C84.0983 64.7202 83.6286 65.7687 83.0721 66.7609C82.9916 66.9058 82.9012 67.0561 82.8127 67.1983C82.7545 67.3066 82.6928 67.405 82.632 67.5088C81.1746 69.935 79.5499 72.4105 77.7365 74.7034C77.6327 74.8358 77.5254 74.9709 77.4162 75.1006C76.3078 76.4802 75.1251 77.7881 73.8681 78.978C72.0735 80.6769 71.1726 79.7966 71.5886 77.662C71.7362 76.9024 71.9008 76.1456 72.0896 75.3905C72.1236 75.2268 72.1665 75.0586 72.2059 74.8931C72.6281 73.2076 73.1336 71.5373 73.7187 69.8974C73.7778 69.7391 73.8368 69.5816 73.8958 69.4233C74.2045 68.5886 74.5328 67.761 74.8835 66.9469C74.9488 66.7913 75.0168 66.6401 75.0884 66.488C75.4901 65.5746 75.9204 64.6755 76.3731 63.7889C76.713 63.1286 77.0825 62.4612 77.52 61.8627C77.6309 61.7097 77.7446 61.5612 77.8635 61.427C78.1293 61.1076 78.4236 60.8142 78.7492 60.5575C79.8147 59.7317 81.3347 59.356 82.5317 59.975C83.7923 60.6228 84.3496 62.1928 84.2119 63.6001Z" fill="#F68640"/>
<path d="M73.7516 76.074C73.2005 75.8485 72.6422 75.6204 72.0894 75.3905C72.1234 75.2268 72.1663 75.0586 72.2057 74.8931C72.7836 75.1284 73.3615 75.3645 73.9395 75.6007C74.2392 75.7305 74.054 76.1975 73.7516 76.074Z" fill="#F46F2E"/>
<path d="M77.7363 74.7034C77.6325 74.8358 77.5252 74.9709 77.416 75.1006C76.3067 74.5209 75.1696 73.9913 74.0119 73.5154C73.7096 73.3919 73.8974 72.9186 74.1989 73.0412C75.404 73.5359 76.5849 74.0915 77.7363 74.7034Z" fill="#F46F2E"/>
<path d="M77.112 71.5981C76.033 70.9334 74.896 70.3653 73.7186 69.8974C73.7777 69.7391 73.8367 69.5817 73.8958 69.4233C75.1169 69.9046 76.2934 70.5004 77.4126 71.1929C77.6917 71.3647 77.3911 71.7708 77.112 71.5981Z" fill="#F46F2E"/>
<path d="M79.6402 69.0359C78.1345 68.1681 76.5367 67.4685 74.8834 66.9469C74.9487 66.7913 75.0167 66.6401 75.0883 66.488C76.7756 67.0221 78.4029 67.7378 79.9444 68.6279C80.2244 68.7881 79.9193 69.196 79.6402 69.0359Z" fill="#F46F2E"/>
<path d="M83.0719 66.7608C82.9913 66.9058 82.901 67.0561 82.8124 67.1983C81.3354 66.2643 79.7134 65.5745 78.0055 65.1702C77.696 65.0941 77.7488 64.5904 78.07 64.6674C79.8413 65.0888 81.5313 65.7982 83.0719 66.7608Z" fill="#F46F2E"/>
<path d="M81.8929 63.3442C81.7998 63.4623 81.6558 63.4632 81.535 63.3997C80.2798 62.701 78.9245 62.1776 77.5199 61.8627C77.6308 61.7098 77.7444 61.5612 77.8634 61.427C79.2492 61.7661 80.5849 62.2921 81.8374 62.9873C81.9564 63.058 81.9662 63.2458 81.8929 63.3442Z" fill="#F46F2E"/>
<path d="M53.9777 127.233L63.1336 134.295L101.53 127.507L97.9042 67.7351L93.814 71.7324L87.7716 68.8507L85.0761 73.3132L79.4917 70.1524L76.2442 74.5218L71.6306 71.9184L69.0845 75.9157L64.7971 73.2201L62.3616 78.0029L60.5095 74.8931L58.7674 77.0313L56.3505 74.9861L53.9777 78.0029V127.233Z" fill="#C07E53"/>
<path d="M63.1336 134.295L53.9777 127.233V78.0029L56.3505 74.9862L58.7674 77.0313L60.5095 74.8931L62.3616 78.0029L63.1336 134.295Z" fill="#A55D39"/>
<path d="M77.7319 97.4334C78.2866 98.8362 68.2267 101.551 68.2267 101.551L67.9464 104.433L72.2567 103.692L78.2928 105.738C78.2928 105.738 78.4217 106.971 78.4888 108.49C78.4995 108.68 78.504 108.873 78.5111 109.069C78.5415 109.976 78.5406 110.941 78.4735 111.777C78.4709 111.858 78.4619 111.94 78.4575 112.019C78.4145 112.435 78.3555 112.813 78.2758 113.126C78.1846 113.475 78.0656 113.742 77.909 113.899L72.9706 113.362C72.9706 113.362 68.1026 118.179 67.1 118.458C66.7016 118.567 64.9665 118.054 63.021 117.396C62.088 117.079 58.4678 115.817 57.5602 115.486L56.9253 111.032L60.2585 106.39C60.6317 105.827 61.1413 105.091 61.7364 104.291L61.7349 104.289C62.0271 103.895 62.3406 103.487 62.6677 103.076C63.8559 101.585 65.2405 100.069 66.5604 99.1413C67.1192 98.7449 67.6665 98.4587 68.1819 98.3262C71.7379 97.4066 77.179 96.0333 77.7319 97.4334Z" fill="#C7614F"/>
<path d="M78.4734 111.777C78.4707 111.858 78.4618 111.94 78.4573 112.019C78.256 111.969 77.9939 111.902 77.6772 111.824C76.957 111.648 75.9818 111.426 74.9217 111.208C73.8607 110.998 72.89 110.872 72.1501 110.859C71.964 110.858 71.795 110.858 71.6447 110.856C71.4953 110.869 71.3655 110.877 71.26 110.888C71.0435 110.9 70.9182 110.907 70.9182 110.907C70.9182 110.907 71.0256 110.844 71.2295 110.737C71.3288 110.684 71.4559 110.619 71.6026 110.549C71.7538 110.493 71.9247 110.432 72.1224 110.368C72.8971 110.123 74.0459 109.999 75.2116 110.23C76.3719 110.47 77.3023 110.953 77.9178 111.364C78.1451 111.518 78.3294 111.658 78.4734 111.777Z" fill="#974237"/>
<path d="M78.4888 108.49C78.4995 108.68 78.504 108.873 78.5111 109.069L78.385 109.04C77.6657 108.865 76.6897 108.643 75.6313 108.427C74.5685 108.215 73.5978 108.088 72.8588 108.076C72.6718 108.075 72.5054 108.072 72.3578 108.073C72.2057 108.084 72.076 108.096 71.9705 108.102C71.7522 108.117 71.6305 108.125 71.6305 108.125C71.6305 108.125 71.7361 108.063 71.9374 107.954C72.0385 107.903 72.1637 107.836 72.3122 107.767C72.4616 107.71 72.637 107.648 72.8302 107.585C73.6103 107.34 74.7581 107.215 75.9212 107.449C76.9983 107.668 77.8786 108.1 78.4888 108.49Z" fill="#974237"/>
<path d="M61.1142 116.737C61.1142 116.737 30.6931 120.072 28.3227 119.096C25.9522 118.12 24.5579 115.47 24.5579 115.47L25.4427 100.746C25.4427 100.746 37.7866 103.059 39.8869 103.046L38.0881 107.528L58.533 109.069L61.1142 116.737Z" fill="#C7614F"/>
<path d="M97.5678 97.123C97.3727 98.1402 101.289 101.6 100.1 100.54C98.9097 99.4812 93.0168 97.5873 92.4603 98.6134C91.9047 99.6405 98.4839 105.645 98.4839 105.645C98.4839 105.645 92.3234 102.164 91.6489 104.352C91.4288 105.067 92.1042 106.15 93.1062 107.282C91.4145 107.222 90.0367 107.481 90.3687 108.581C91.1515 111.17 98.6315 112.158 98.6315 112.158C107.398 112.395 104.195 98.855 104.195 98.855C104.195 98.855 97.761 96.1049 97.5678 97.123Z" fill="#C7614F"/>
<path d="M92.1151 32.9267L103.969 22.0336L107.806 30.1318L92.1151 32.9267Z" fill="white"/>
<path d="M87.0272 31.7135L85.8364 21.6695L91.3617 22.3825L87.0272 31.7135Z" fill="white"/>
<path d="M92.6302 39.9656L103.367 39.9835L102.887 45.0713L92.6302 39.9656Z" fill="white"/>
</svg>
