<svg width="146" height="290" viewBox="0 0 146 290" fill="none" xmlns="http://www.w3.org/2000/svg">
<path d="M145.338 281.994C145.338 281.994 112.957 289.903 73.0141 289.903C33.0709 289.903 0.690796 281.994 0.690796 281.994C0.690796 281.994 33.0709 274.084 73.0141 274.084C112.957 274.084 145.338 281.994 145.338 281.994Z" fill="#CBB59B"/>
<path d="M51.8219 278.395C52.1513 277.837 52.3915 277.07 51.9803 276.276C50.7815 273.958 45.9913 265.92 45.3263 262.981C44.8109 260.698 45.569 257.226 45.9341 255.789L32.5658 246.21C29.1168 248.879 23.4198 254.774 22.233 256.013L51.8219 278.395Z" fill="#46689C"/>
<path d="M49.5382 281.305L19.9485 258.923L22.233 256.013L51.8219 278.395L49.5382 281.305Z" fill="white"/>
<path d="M42.1954 261.911L42.0554 261.966C41.7102 262.112 41.3092 262.433 41.5328 262.846C41.6457 263.057 41.8684 263.189 42.0848 263.295C42.8325 263.663 43.6487 263.844 44.4719 263.958C45.3573 264.083 46.3054 264.209 47.1733 263.921C48.0689 263.624 47.948 262.621 47.1319 262.23C45.72 261.556 43.6892 261.345 42.1954 261.911Z" fill="white"/>
<path d="M43.1937 265.152L43.0545 265.207C42.7093 265.353 42.3084 265.674 42.5319 266.087C42.6449 266.299 42.8668 266.429 43.0839 266.537C43.8317 266.904 44.6478 267.084 45.4711 267.2C46.3564 267.323 47.3046 267.45 48.1716 267.162C49.0681 266.865 48.9464 265.861 48.131 265.471C46.7191 264.797 44.6875 264.584 43.1937 265.152Z" fill="white"/>
<path d="M45.1258 268.251L44.9858 268.307C44.6422 268.453 44.2405 268.774 44.4632 269.188C44.577 269.398 44.7989 269.528 45.0168 269.635C45.7646 270.004 46.5791 270.183 47.4032 270.299C48.2885 270.423 49.2358 270.549 50.1037 270.261C51.0001 269.964 50.8792 268.961 50.0623 268.571C48.652 267.896 46.6196 267.685 45.1258 268.251Z" fill="white"/>
<path d="M85.7141 208.622L67.9948 189.95L28.7842 244.46L47.9751 259.031L85.7141 208.622Z" fill="#6A262D"/>
<path d="M97.5653 143.225L72.2297 142.127C72.9376 155.838 73.8452 180.611 71.4684 185.669C71.3976 185.821 70.8703 186.619 70.0088 187.89L89.941 207.14C89.941 207.14 97.8843 195.317 98.978 190.773C101.761 179.211 97.5232 145.531 97.5653 143.225Z" fill="#6A262D"/>
<path d="M48.3267 142.49C48.3267 142.49 68.1937 198.62 73.0483 211.879L77.3349 267.44L98.7713 263.948L98.5208 257.6L96.4128 203.465L79.8334 143.714L54.7689 142.746L48.3267 142.49Z" fill="#864549"/>
<path d="M93.5382 211.217C92.0793 213.744 89.1966 213.534 87.0291 211.005C85.8677 209.65 84.941 208.002 84.5966 206.176C84.2522 204.349 84.5385 202.338 85.5686 200.866C86.5995 199.395 88.4179 198.576 90.043 199.067C91.9688 199.648 93.1723 201.781 93.8118 203.875C94.336 205.586 94.6128 207.437 94.2612 209.197C94.1006 209.999 93.8516 210.672 93.5382 211.217Z" fill="#9C5B61"/>
<path d="M116.533 276.55C116.394 275.918 116.047 275.192 115.2 274.874C112.727 273.944 103.683 271.136 101.179 269.391C99.2358 268.037 97.4214 264.962 96.7079 263.654L80.2621 265.354C79.5366 269.608 79.3553 277.738 79.3235 279.439L116.533 276.55Z" fill="#46689C"/>
<path d="M116.834 280.216L79.6257 283.105L79.3235 279.439L116.533 276.55L116.834 280.216Z" fill="white"/>
<path d="M98.1301 270.662L98.0649 270.794C97.9098 271.13 97.8326 271.633 98.2804 271.793C98.5087 271.874 98.7625 271.825 98.9963 271.761C99.8021 271.541 100.528 271.138 101.216 270.681C101.956 270.189 102.744 269.658 103.188 268.873C103.65 268.061 102.873 267.397 102.002 267.645C100.497 268.075 98.8476 269.256 98.1301 270.662Z" fill="white"/>
<path d="M101.087 272.408L101.022 272.541C100.866 272.876 100.789 273.379 101.236 273.539C101.465 273.621 101.719 273.571 101.953 273.508C102.758 273.288 103.484 272.885 104.173 272.428C104.912 271.936 105.701 271.405 106.145 270.619C106.606 269.808 105.829 269.144 104.958 269.392C103.452 269.821 101.804 271.004 101.087 272.408Z" fill="white"/>
<path d="M104.638 273.435L104.573 273.568C104.417 273.903 104.34 274.407 104.787 274.566C105.016 274.648 105.269 274.598 105.503 274.535C106.308 274.315 107.034 273.912 107.723 273.454C108.463 272.964 109.251 272.432 109.696 271.647C110.156 270.836 109.38 270.171 108.509 270.419C107.003 270.848 105.355 272.031 104.638 273.435Z" fill="white"/>
<path d="M48.3267 142.49C48.3267 142.49 68.1937 198.62 73.0483 211.879L77.3349 267.44L98.7713 263.948L98.5208 257.6L81.7568 258.597C81.7568 258.597 78.2163 213.502 77.1758 208.669C76.2261 204.264 57.9905 151.986 54.7689 142.746L48.3267 142.49Z" fill="#6A262D"/>
<path d="M94.4178 55.1195C94.4178 55.1195 101.729 59.0513 103.92 61.946C106.112 64.8406 111.982 88.3809 111.982 88.3809C111.982 88.3809 122.621 103.705 123.355 107.018C124.089 110.332 119.687 123.632 116.384 124.87C113.083 126.108 94.4178 122.085 94.4178 122.085L87.4648 88.3809L94.4178 55.1195Z" fill="#F1435B"/>
<path d="M60.0349 51.7174L46.3063 55.627C46.3063 55.627 39.2507 109.774 39.2507 113.08C39.2507 116.385 41.4684 126.841 41.4684 126.841C41.4684 126.841 37.3249 138.398 39.2507 140.599C41.1757 142.8 62.6176 148.537 81.0632 148.145C99.5079 147.752 103.877 140.676 103.912 139.361C103.976 136.884 99.5581 129.1 99.5581 129.1C99.5581 129.1 104.152 121.614 103.912 118.586C103.671 115.56 94.4179 55.1195 94.4179 55.1195L86.7458 53.7163L60.0349 51.7174Z" fill="#F1435B"/>
<path d="M94.2803 63.7397L96.0239 85.6526L98.7713 83.7109L94.2803 63.7397Z" fill="#EF2D2E"/>
<path d="M86.7459 53.7162C84.8154 57.1287 81.3114 61.4209 75.6678 61.9069C68.3115 62.5481 62.3672 55.1369 60.0349 51.7173C63.4092 50.7755 66.5743 50.0421 66.5743 50.0421L79.2337 50.5902C79.2337 50.5902 83.1783 52.088 86.7459 53.7162Z" fill="#F68672"/>
<path d="M80.1986 54.8331L75.8245 57.5917C75.8245 57.5917 68.2908 52.889 66.571 50.0389L66.4732 48.9428L66.1073 42.39L79.3793 38.4103C79.3793 38.4103 79.1438 40.7561 79.0556 43.7502C78.941 47.5428 79.0651 52.3616 80.1986 54.8331Z" fill="#F68672"/>
<path d="M79.0556 43.7502C75.5683 45.6394 69.2772 48.9977 68.2129 49.3509C67.6378 49.5338 67.0245 49.2992 66.4732 48.9428L66.1073 42.39L79.3793 38.4104C79.3793 38.4104 79.1438 40.7561 79.0556 43.7502Z" fill="#F36269"/>
<path d="M82.2611 37.2323C82.2611 37.2323 81.9008 38.1407 80.4189 39.3418H80.4164C80.1142 39.5884 79.761 39.8477 79.3569 40.1134C77.8114 41.1236 63.5157 46.5294 61.3664 46.1476C59.2163 45.765 57.5005 38.2465 57.4218 37.4606C56.9349 32.6362 55.6654 17.7376 55.6654 17.7376C61.6988 1.82391 80.3647 11.0097 82.4583 12.6889C84.552 14.3681 82.2611 37.2323 82.2611 37.2323Z" fill="#F68672"/>
<path d="M80.4166 39.3418C80.1143 39.5884 79.7611 39.8477 79.3571 40.1134C77.8115 41.1236 63.5158 46.5294 61.3665 46.1476C59.2164 45.765 57.5006 38.2465 57.4219 37.4606C58.627 40.7824 59.9538 45.3609 61.4906 45.283C63.8069 45.1669 78.673 40.1643 80.4166 39.3418Z" fill="#F9AA7F"/>
<path d="M57.172 22.4426C57.172 22.4426 59.5018 18.8019 61.0394 20.065C62.5778 21.3282 61.9407 21.5191 61.9407 21.5191L57.172 22.4426Z" fill="#F46F2E"/>
<path d="M77.4949 18.9976C77.4949 18.9976 72.0644 14.1485 70.3725 16.3328C69.3846 17.6079 70.2699 18.2777 70.2699 18.2777L77.4949 18.9976Z" fill="#F46F2E"/>
<path d="M58.7159 26.8247C58.6673 27.9487 59.1955 28.8849 59.8955 28.9151C60.5955 28.9454 61.2016 28.0584 61.2509 26.9345C61.2995 25.8105 60.7713 24.8743 60.0713 24.844C59.3713 24.8138 58.7644 25.7 58.7159 26.8247Z" fill="#121414"/>
<path d="M57.6707 25.7899C57.6707 25.7899 58.0891 26.4095 58.8058 26.7364C59.5224 27.0626 60.2654 26.9727 60.2654 26.9727C60.2654 26.9727 59.8454 26.353 59.1295 26.0269C58.4128 25.7 57.6707 25.7899 57.6707 25.7899Z" fill="white"/>
<path d="M74.2915 25.2132C74.2327 26.5782 73.4953 27.656 72.6449 27.6194C71.7946 27.582 71.1535 26.4453 71.2124 25.0795C71.2712 23.7138 72.0086 22.6367 72.8597 22.6733C73.7101 22.7107 74.3512 23.8474 74.2915 25.2132Z" fill="#121414"/>
<path d="M75.6662 24.0709C75.6662 24.0709 75.0935 24.7765 74.1923 25.097C73.291 25.4168 72.4017 25.2299 72.4017 25.2299C72.4017 25.2299 72.9736 24.5235 73.8757 24.2038C74.7769 23.884 75.6662 24.0709 75.6662 24.0709Z" fill="white"/>
<path d="M70.8535 38.9695C69.5514 39.5542 67.9907 39.5327 66.7061 38.9115C67.1324 39.5932 67.7521 40.0116 68.5555 40.0163C69.3597 40.0203 70.2856 39.5391 70.8535 38.9695Z" fill="#F14568"/>
<path d="M59.6966 33.1119C59.4492 33.6934 58.1701 33.7069 56.8386 33.1413C55.5062 32.5758 54.6273 31.6467 54.8738 31.0644C55.1212 30.483 56.4003 30.4702 57.7327 31.0358C59.0642 31.6006 59.9432 32.5304 59.6966 33.1119Z" fill="#F36269"/>
<path d="M76.8447 31.0915C77.0372 31.9927 75.5195 33.0809 73.4561 33.5216C71.3911 33.9614 69.5616 33.5876 69.3691 32.6863C69.1774 31.7843 70.6943 30.6969 72.7593 30.2563C74.8235 29.8156 76.653 30.1902 76.8447 31.0915Z" fill="#F36269"/>
<path d="M74.0236 35.0934C74.0236 35.0934 73.9306 35.2103 73.7675 35.4131C73.6044 35.6231 73.3371 35.9015 72.9744 36.2141C72.2569 36.8418 71.0725 37.5489 69.6145 37.8512C68.1556 38.1487 66.7899 37.9673 65.8823 37.6746C65.4265 37.5298 65.0709 37.3795 64.837 37.2514C64.6072 37.1289 64.4751 37.0581 64.4751 37.0581C64.4751 37.0581 64.6207 37.0915 64.8736 37.1496C65.1266 37.2156 65.4996 37.28 65.9546 37.3349C66.867 37.4503 68.1286 37.4463 69.4753 37.1726C70.8204 36.8918 71.9809 36.3979 72.774 35.9318C73.1701 35.7011 73.4883 35.4943 73.6935 35.3344C73.9035 35.1809 74.0236 35.0934 74.0236 35.0934Z" fill="#F14568"/>
<path d="M68.2525 31.6738C66.7061 32.7794 64.4964 32.8622 62.8721 31.8742C63.0781 33.174 64.3086 34.2876 65.6243 34.247C66.94 34.2065 68.1268 32.9847 68.2525 31.6738Z" fill="#F36269"/>
<path d="M65.2394 33.8835C64.8846 33.8024 64.4694 33.6497 64.0812 33.3991C63.693 33.1485 63.3637 32.7946 63.2913 32.373C63.2086 31.9586 63.4305 31.6165 63.8004 31.3715C64.0534 31.2092 64.3334 31.1345 64.6046 31.1082C64.7192 31.0971 64.8226 31.0939 64.9236 31.1011C64.9355 30.9698 64.9387 30.8266 64.9459 30.6636C64.9602 29.9787 64.922 29.06 64.7359 28.0434C64.3827 26.0754 63.6079 24.5999 63.5133 24.4297C63.5117 24.6246 63.5594 26.2743 63.911 28.1897C64.0717 29.1101 64.2801 29.935 64.4575 30.5809C64.1552 30.5498 63.8203 30.5856 63.4767 30.7423C63.1879 30.868 62.9087 31.0661 62.6908 31.3779C62.4728 31.7 62.3893 32.1272 62.468 32.5098C62.6001 33.3013 63.2237 33.7968 63.7384 34.0283C64.2737 34.263 64.7947 34.3314 65.2099 34.2988C65.6347 34.2789 65.9592 34.1802 66.1684 34.0927C66.3236 34.0267 66.4254 33.9718 66.4699 33.9488C66.3753 33.9639 65.8932 34.0251 65.2394 33.8835Z" fill="#F14568"/>
<path d="M88.6501 22.1928C89.4447 23.0989 89.7939 24.3915 89.5513 25.5751C89.4455 26.0826 89.2633 26.5797 88.9992 27.0204C88.6516 27.6249 88.1553 28.1316 87.5221 28.4331C87.3574 27.6456 87.013 26.59 86.694 26.178C85.5478 25.6236 84.2974 25.875 83.4081 26.7857C82.5124 27.6949 82.2873 29.1848 82.8576 30.3271C81.8617 29.6485 81.1991 28.511 81.083 27.3123C80.861 28.0211 80.6391 28.7234 80.4172 29.4258C79.2893 26.668 79.7872 23.3001 81.6859 20.9957C80.9637 21.0562 80.2422 21.1087 79.5279 21.1699C80.5182 20.9217 81.1856 19.6347 80.9422 18.5688C80.651 17.3239 79.5653 16.4275 78.4612 15.7752C77.3651 15.1237 76.156 14.5964 75.3025 13.6418C75.2365 14.0984 75.1792 14.547 75.1203 15.0036C73.9988 14.5876 73.1667 13.4875 73.0649 12.2975C72.1128 14.3299 70.1783 15.8754 67.9773 16.3614C67.99 15.5207 67.6949 14.5741 67.7004 13.7333C67.6026 15.1213 66.8875 16.4442 65.7946 17.2921C64.6945 18.1401 63.2253 18.4964 61.8587 18.2387C62.3233 18.1059 62.4394 17.5522 62.4147 17.0765C61.3345 18.6826 59.5129 19.7667 57.584 19.9505C55.6566 20.135 53.6601 19.4136 52.2959 18.0462C53.707 18.673 55.5811 17.6294 55.7926 16.0934C55.8467 15.7442 55.8157 15.391 55.7465 15.0434C54.1795 15.1898 52.5639 14.8668 51.1823 14.096C51.4797 14.1159 51.7725 14.0674 52.0453 13.9568C52.7071 13.6951 53.2528 13.0993 53.5567 12.4391C53.9878 11.5013 54.0562 10.4561 54.2376 9.4387C54.411 8.42848 54.7403 7.37134 55.5333 6.71749C55.7799 6.51385 56.0846 6.37385 56.4011 6.2959C55.5254 5.66113 55.064 4.48627 55.1078 2.78163C56.4043 3.76321 58.2649 3.55321 59.7547 2.89856C61.2438 2.24471 62.5515 1.20665 64.0621 0.591774C66.3052 -0.31344 68.9302 -0.161522 71.0946 0.919487C71.5337 0.678467 71.9943 0.476433 72.4731 0.351549C74.0839 -0.0764008 75.8768 0.193256 77.2847 1.08813C79.9359 0.460526 82.7089 1.0937 84.5583 3.09424C86.4069 5.10194 87.0719 8.12304 86.2398 10.7186C86.9462 10.2978 87.6613 9.86983 88.3685 9.44188C88.7376 10.4601 88.4703 11.6723 87.7178 12.4431C89.1217 12.1981 90.6363 12.7303 91.5685 13.8033C90.8367 13.925 90.097 14.0459 89.3651 14.1668C90.8439 14.9885 91.7634 16.7194 91.6139 18.4113C91.4643 20.0961 90.2497 21.6424 88.6501 22.1928Z" fill="#F35E23"/>
<path d="M91.6138 18.4113C91.5255 19.3794 91.088 20.3093 90.4294 21.0228C89.9323 21.5517 89.3254 21.9614 88.65 22.1929C89.4447 23.0989 89.7938 24.3915 89.5512 25.5751C89.4454 26.0826 89.2633 26.5797 88.9992 27.0204C87.561 26.4763 86.3886 25.109 86.387 23.5483C85.5947 22.7791 85.1922 21.6377 85.3322 20.5415C84.6171 20.9766 84.0953 21.7116 83.9147 22.523C84.077 20.1883 84.2472 17.8474 84.4103 15.5056C83.7747 16.052 83.1312 16.5977 82.4957 17.1442C83.4144 14.9957 82.3111 12.2085 80.1722 11.2666C80.1324 11.8155 80.0855 12.3572 80.0473 12.9061C78.1843 12.4662 76.603 11.005 76.0152 9.18896C75.5793 10.0576 75.1521 10.919 74.717 11.7797C74.1984 10.8697 73.6798 9.95257 73.1604 9.03463C71.9083 10.0361 70.6563 11.0376 69.4034 12.047C69.063 11.0837 68.7218 10.1204 68.3813 9.1643C68.0783 11.5538 66.2957 13.6872 63.9913 14.4063C63.9404 13.6538 63.8807 12.8941 63.8298 12.1424C62.8092 14.3315 60.3887 15.8031 57.9682 15.6901C58.3722 14.66 58.7692 13.6212 59.1661 12.5903C57.1648 14.1024 54.4579 14.6051 52.0453 13.9568C52.7071 13.6951 53.2528 13.0994 53.5566 12.4391C53.8271 11.8537 53.9535 11.2324 54.0577 10.5937C54.1198 10.2135 54.1667 9.82531 54.2375 9.43872C54.4109 8.42851 54.7403 7.37137 55.5333 6.71751C55.7799 6.51388 56.0845 6.37388 56.4011 6.29592C55.5253 5.66116 55.064 4.48629 55.1077 2.78166C56.4043 3.76324 58.2649 3.55324 59.7547 2.89858C61.2438 2.24473 62.5515 1.20668 64.062 0.591799C66.3052 -0.313417 68.9302 -0.161497 71.0946 0.919512C71.5337 0.678492 71.9942 0.476458 72.4731 0.351572C74.0839 -0.076376 75.8768 0.193281 77.2847 1.08815C79.9359 0.46055 82.7088 1.09372 84.5582 3.09426C86.4068 5.10196 87.0718 8.12306 86.2398 10.7186C86.9462 10.2978 87.6613 9.86985 88.3684 9.44191C88.7375 10.4601 88.4702 11.6723 87.7178 12.4431C89.1217 12.1981 90.6362 12.7303 91.5685 13.8033C90.8367 13.925 90.0969 14.0459 89.3651 14.1668C90.8438 14.9885 91.7634 16.7194 91.6138 18.4113Z" fill="#F46F2E"/>
<path d="M91.6138 18.4113C91.5255 19.3794 91.088 20.3093 90.4294 21.0228C88.7629 20.1088 87.7003 18.1576 87.8896 16.2533C87.5778 16.729 87.2667 17.2055 86.9477 17.6811C86.8754 16.3543 86.811 15.0275 86.7378 13.7015C86.1674 14.3347 85.5883 14.9671 85.0188 15.601C85.0005 13.3507 84.2027 11.1044 82.7955 9.34488C82.2189 9.74897 81.6358 10.1443 81.0599 10.5476C81.7328 9.3218 82.4344 7.96797 82.1647 6.60219C81.9436 5.51323 81.0654 4.58733 79.9908 4.31211C78.9169 4.03609 77.6983 4.41949 76.9808 5.26744C76.9968 4.21268 76.183 3.20563 75.1434 3.00757C74.1117 2.80234 72.975 3.42598 72.5892 4.40437C71.2067 3.457 69.2587 3.73938 67.8428 4.64221C66.4261 5.54504 65.4238 6.95536 64.4542 8.32034C64.3206 7.34274 64.1869 6.35798 64.0541 5.37322C63.3819 7.80727 61.037 9.6726 58.5146 9.7768C59.0555 8.95909 59.5885 8.13262 60.1294 7.31491C58.0572 8.32671 56.036 9.41726 54.0577 10.5937C54.1198 10.2135 54.1667 9.82532 54.2375 9.43874C54.4109 8.42852 54.7403 7.37138 55.5333 6.71753C55.7799 6.5139 56.0845 6.37389 56.4011 6.29594C55.5253 5.66117 55.064 4.48631 55.1077 2.78167C56.4043 3.76325 58.2649 3.55325 59.7547 2.8986C61.2438 2.24475 62.5515 1.20669 64.062 0.591814C66.3052 -0.3134 68.9302 -0.16148 71.0946 0.919527C71.5336 0.678509 71.9942 0.476475 72.4731 0.351589C74.0838 -0.0763588 75.8768 0.193296 77.2847 1.08817C79.9359 0.460566 82.7088 1.09374 84.5582 3.09428C86.4068 5.10198 87.0718 8.12308 86.2398 10.7186C86.9462 10.2978 87.6613 9.86987 88.3684 9.44192C88.7375 10.4601 88.4702 11.6723 87.7177 12.4431C89.1217 12.1981 90.6362 12.7303 91.5685 13.8033C90.8367 13.9251 90.0969 14.0459 89.3651 14.1669C90.8438 14.9885 91.7634 16.7194 91.6138 18.4113Z" fill="#F68640"/>
<path d="M80.1714 37.7136C83.0708 37.6117 85.2503 35.9883 86.4387 34.601C86.706 34.2884 86.9231 33.9877 87.087 33.7196C87.9771 32.2584 88.4392 27.0761 86.3671 25.7779C84.9138 24.8687 83.7764 26.0468 83.2267 26.8351V26.8383C82.992 27.1731 82.8632 27.4372 82.8632 27.4372L80.1714 37.7136Z" fill="#F9AA7F"/>
<path d="M80.1714 37.7136C83.0708 37.6117 85.2503 35.9883 86.4387 34.601C86.5429 34.4586 86.6336 34.3234 86.7123 34.1937C87.6024 32.7325 88.0646 27.551 85.9909 26.2536C84.8152 25.5162 83.8448 26.1486 83.2267 26.8351V26.8383C82.992 27.1731 82.8632 27.4372 82.8632 27.4372L80.1714 37.7136Z" fill="#F68672"/>
<path d="M86.8589 29.9309C86.9472 30.3509 86.8613 30.7805 86.707 31.1846C86.0507 32.9011 84.253 34.1555 82.5341 35.3177C83.0718 34.4944 83.2985 33.5486 83.2356 32.6148C83.2141 32.2894 83.1585 31.9649 83.1688 31.6404C83.2134 30.3334 86.3355 27.4484 86.8589 29.9309Z" fill="#F36269"/>
<path d="M81.6757 35.7767L81.7727 35.7273C81.8339 35.6931 81.9334 35.6494 82.0471 35.5786C82.277 35.4394 82.596 35.2135 82.9022 34.8722C83.2061 34.5318 83.4893 34.0712 83.6372 33.5184C83.7741 32.9664 83.7788 32.3165 83.5068 31.6785C83.4789 31.5982 83.4368 31.521 83.3962 31.4447L83.3652 31.3874L83.3612 31.381L83.362 31.3826L83.3604 31.3818H83.3596L83.3652 31.3723L83.3946 31.3238L83.4551 31.2267L83.5792 31.0382C83.7478 30.7892 83.9283 30.557 84.1121 30.3422C84.2966 30.1266 84.4875 29.9294 84.6737 29.7504C84.863 29.5722 85.0444 29.4052 85.2225 29.2827C85.3999 29.1602 85.5932 29.083 85.7714 29.0679C85.9511 29.056 86.1174 29.1029 86.2272 29.1641C86.3401 29.2262 86.3998 29.3025 86.4237 29.3582L86.4491 29.4465L86.4483 29.3535C86.4396 29.2922 86.3966 29.1991 86.286 29.1093C86.1771 29.0226 86.0029 28.9366 85.7674 28.9207C85.5328 28.9088 85.2758 28.9764 85.0444 29.0941C84.8105 29.2127 84.5989 29.3638 84.3754 29.5308C84.1543 29.6995 83.9283 29.8904 83.7096 30.1044C83.4916 30.3183 83.2793 30.5546 83.086 30.8123L82.9428 31.0096L82.8744 31.1114L82.7829 31.2546L82.7201 31.3556L82.7726 31.4622L82.8513 31.6133L82.9468 31.8162C83.183 32.3698 83.2164 32.9401 83.1456 33.4468C83.0629 33.9535 82.872 34.399 82.6477 34.7489C82.4226 35.0997 82.172 35.3567 81.9843 35.5253C81.8912 35.6096 81.8085 35.6677 81.756 35.7114L81.6757 35.7767Z" fill="#D03B58"/>
<path d="M52.0756 194.371C52.0756 197.45 44.079 198.614 38.6127 198.493C33.3612 198.607 25.7957 197.539 25.1991 194.735C25.1634 194.616 25.1506 194.496 25.1506 194.371C25.1506 191.769 28.1343 177.09 29.5367 170.335C29.9718 168.264 30.2526 166.933 30.2526 166.933H46.9673C46.9673 166.933 47.2473 168.264 47.6832 170.335C49.0855 177.09 52.0756 191.769 52.0756 194.371Z" fill="#46689C"/>
<path d="M47.6832 170.335C47.2473 168.264 46.9673 166.933 46.9673 166.933H43.9948H30.2527C30.2527 166.933 29.9719 168.264 29.5368 170.335H44.7663C46.4439 177.833 48.8724 189.382 48.3935 191.178C47.719 193.75 36.0228 198.249 25.1992 194.735C25.7958 197.539 33.3613 198.607 38.6128 198.493C44.0791 198.614 52.0757 197.45 52.0757 194.371C52.0757 191.769 49.0856 177.09 47.6832 170.335Z" fill="#2C507E"/>
<path d="M48.3952 168.315H28.8273V163.849H48.3952V168.315Z" fill="#46689C"/>
<path d="M44.5611 184.799H29.6736V178.135H44.5611V184.799Z" fill="white"/>
<path d="M46.3062 153.672C45.9037 154.093 45.2029 154.19 44.701 153.895C44.2564 156.371 43.8109 158.85 43.3647 161.327C43.2605 161.913 43.0791 162.595 42.5239 162.811C41.7952 163.093 41.0976 162.355 40.688 161.689C39.7207 160.116 39.0907 158.461 38.4353 156.789H36.1953C36.3114 157.822 37.1117 159.152 37.5038 159.84C37.8968 160.528 40.085 166.914 40.2235 166.941C41.6767 167.234 43.1968 167.197 44.6342 166.83C44.2468 162.392 44.8203 157.872 46.3062 153.672Z" fill="#2AB57E"/>
<path d="M49.4927 148.087C50.413 146.796 50.0121 144.764 48.671 143.918C47.3298 143.072 45.3237 143.586 44.5545 144.973C44.2547 143.606 42.8897 142.555 41.4913 142.616C40.0929 142.676 38.8226 143.84 38.642 145.228C37.7034 143.68 35.6893 142.875 33.9425 143.349C32.1949 143.823 30.8649 145.536 30.8371 147.347C29.8842 147.109 28.8302 147.121 27.9687 147.595C27.1073 148.067 26.5012 149.068 26.6817 150.034C26.8599 151 27.9616 151.746 28.8779 151.391C28.0276 152.056 27.7683 153.368 28.302 154.307C28.8358 155.245 30.095 155.695 31.102 155.305C29.7951 157.119 30.8291 160.101 32.9784 160.719C35.1762 161.349 37.3621 159.422 37.4608 157.259L37.4973 157.327C37.5077 158.362 38.1568 159.335 39.027 159.906C39.9409 160.506 41.0562 160.723 42.1483 160.77C45.2028 160.898 50.0988 158.841 48.9318 155.005L48.9303 154.922C50.8536 154.741 52.987 154.204 53.232 151.863C53.442 149.849 51.5091 147.896 49.4927 148.087Z" fill="#2EAE7D"/>
<path d="M34.4581 185.612C34.3858 189.437 34.3054 192.899 34.2489 195.198C34.2092 196.794 33.1616 198.058 31.8809 198.058H19.4529C18.1722 198.058 17.1254 196.794 17.0848 195.198C17.0284 192.899 16.948 189.437 16.8756 185.612C16.7866 180.955 16.7221 175.776 16.7389 171.541C16.7627 166.994 16.8756 163.551 17.1572 162.989C18.1078 161.152 21.3461 159.316 21.3461 159.316L22.1113 143.969H29.2146L29.9885 159.316C29.9885 159.316 33.226 161.152 34.1765 162.989C34.4581 163.551 34.5711 166.994 34.587 171.541C34.6117 175.776 34.5464 180.955 34.4581 185.612Z" fill="#C07E53"/>
<path d="M29.3054 145.259H22.0278C21.4973 145.259 21.0662 144.829 21.0662 144.297V143.469C21.0662 142.938 21.4973 142.508 22.0278 142.508H29.3054C29.8367 142.508 30.2671 142.938 30.2671 143.469V144.297C30.2671 144.829 29.8367 145.259 29.3054 145.259Z" fill="#363950"/>
<path d="M34.4581 185.612H16.8756C16.7866 180.955 16.7221 175.776 16.7389 171.541H34.587C34.6117 175.776 34.5464 180.955 34.4581 185.612Z" fill="#F68640"/>
<path d="M74.4927 157.258V192.773H49.748V157.258H74.4927Z" fill="#5B9FDC"/>
<path d="M58.0357 157.258H52.6259V155.074H58.0357V157.258Z" fill="#363950"/>
<path d="M74.4927 174.087V179.673L74.3177 179.738C72.0706 180.561 69.9515 181.991 68.7838 184.086C67.9605 185.552 67.5055 187.42 66.0109 188.19C64.2768 189.083 62.2468 187.963 60.442 187.21C57.0804 185.792 53.2042 185.703 49.748 186.848V168.18C51.6277 169.044 53.8987 169.172 55.8897 168.53C59.1518 167.479 61.651 164.748 63.1807 161.688C63.8862 160.27 64.4176 158.787 64.8495 157.258H67.9788C67.6869 160.912 68.3519 164.642 69.9459 167.94C71.0548 170.252 72.6139 172.342 74.4927 174.087Z" fill="white"/>
<path d="M54.9592 173.852L56.0298 176.415L57.1013 173.852H58.8163V178.76H57.402V176.071L56.562 178.284H55.4977L54.6577 176.071V178.76H53.2434V173.852H54.9592Z" fill="#363950"/>
<path d="M61.1436 173.852V178.76H59.5193V173.852H61.1436Z" fill="#363950"/>
<path d="M63.4694 173.852V177.409H65.5136V178.76H61.8451V173.852H63.4694Z" fill="#363950"/>
<path d="M69.0583 178.76L68.0361 177.073L67.5597 177.605V178.76H65.9362V173.852H67.5597V175.554L69.0233 173.852H70.8934L69.1434 175.826L70.9984 178.76H69.0583Z" fill="#363950"/>
<path d="M69.7058 196.088C70.0422 196.174 70.3922 196.257 70.7351 196.198C71.0771 196.139 71.4128 195.903 71.4812 195.561C71.5695 195.115 71.1956 194.722 70.84 194.438C69.7137 193.538 68.4418 192.821 67.0879 192.325C69.1012 192.542 71.1757 192.163 72.983 191.246C73.5676 190.949 74.2088 190.305 73.8667 189.745C73.6583 189.406 73.2009 189.34 72.804 189.32C71.2592 189.246 69.7057 189.343 68.1817 189.611C69.4456 188.941 70.4073 187.725 70.7709 186.341C70.8687 185.968 70.887 185.493 70.564 185.281C70.2658 185.085 69.8688 185.246 69.5602 185.425C68.3368 186.132 67.2629 187.096 66.4285 188.235C66.8079 187.703 67.2009 187.135 67.2486 186.483C67.2948 185.832 66.8405 185.097 66.1867 185.097C65.676 185.097 65.2727 185.515 64.9585 185.917C63.9897 187.151 61.1285 191.369 62.0918 192.987C62.5475 193.753 64.6921 194.346 65.4915 194.678C66.8605 195.246 68.27 195.717 69.7058 196.088Z" fill="#2EAE7D"/>
<path d="M59.7827 188.188C58.4272 188.103 57.0869 188.458 55.7983 188.926C55.6098 188.993 55.4141 189.072 55.2272 189.148C55.0872 189.197 54.9575 189.251 54.8223 189.304C51.6501 190.564 48.3863 192.012 45.3032 193.722C45.1242 193.82 44.9436 193.921 44.7663 194.026C42.9081 195.075 41.1208 196.228 39.4591 197.49C37.0871 199.293 37.9581 200.538 40.5798 200.461C41.5121 200.434 42.4452 200.385 43.3806 200.309C43.5826 200.301 43.791 200.282 43.9955 200.268C46.0827 200.095 48.1708 199.819 50.2365 199.444C50.4362 199.404 50.6359 199.365 50.8355 199.325C51.8895 199.123 52.9386 198.893 53.9751 198.635C54.1732 198.587 54.3657 198.536 54.5622 198.481C55.7275 198.181 56.8817 197.844 58.0247 197.479C58.8766 197.204 59.7445 196.896 60.5423 196.49C60.7459 196.389 60.9448 196.283 61.1278 196.168C61.5597 195.914 61.9661 195.621 62.3352 195.284C63.526 194.177 64.2713 192.442 63.7686 190.895C63.2444 189.269 61.4849 188.298 59.7827 188.188Z" fill="#F68640"/>
<path d="M42.8929 198.197C43.0527 198.897 43.215 199.605 43.3805 200.309C43.5825 200.301 43.7909 200.282 43.9953 200.268C43.8275 199.534 43.6604 198.8 43.4934 198.065C43.3964 197.684 42.8046 197.813 42.8929 198.197Z" fill="#F46F2E"/>
<path d="M45.3032 193.722C45.1242 193.82 44.9436 193.921 44.7662 194.026C45.2403 195.46 45.6484 196.917 45.9888 198.388C46.0763 198.772 46.6761 198.641 46.5886 198.257C46.2362 196.726 45.8067 195.212 45.3032 193.722Z" fill="#F46F2E"/>
<path d="M48.8756 195.073C49.4563 196.487 49.9096 197.952 50.2366 199.444C50.4362 199.404 50.6359 199.365 50.8356 199.325C50.5007 197.778 50.0226 196.261 49.4181 194.795C49.2677 194.429 48.726 194.707 48.8756 195.073Z" fill="#F46F2E"/>
<path d="M52.4193 192.566C53.1583 194.526 53.6785 196.565 53.9752 198.635C54.1732 198.587 54.3657 198.536 54.5622 198.481C54.256 196.368 53.723 194.292 52.965 192.283C52.8289 191.918 52.2833 192.201 52.4193 192.566Z" fill="#F46F2E"/>
<path d="M55.7983 188.926C55.6098 188.993 55.4141 189.072 55.2272 189.148C56.0497 191.09 56.5532 193.155 56.7003 195.266C56.7306 195.65 57.3399 195.685 57.312 195.288C57.1569 193.098 56.6431 190.947 55.7983 188.926Z" fill="#F46F2E"/>
<path d="M59.6339 190.998C59.4748 191.085 59.4453 191.256 59.4978 191.412C60.0849 193.043 60.442 194.758 60.5423 196.49C60.7459 196.389 60.9448 196.283 61.1277 196.168C60.9949 194.451 60.6298 192.76 60.0475 191.133C59.9879 190.977 59.7651 190.93 59.6339 190.998Z" fill="#F46F2E"/>
<path d="M45.1623 166.328C45.1082 165.984 45.0438 165.631 44.8529 165.341C44.662 165.051 44.312 164.836 43.9716 164.91C43.5277 165.006 43.3161 165.506 43.1968 165.945C42.8205 167.337 42.6694 168.79 42.7545 170.229C42.1508 168.296 40.9759 166.544 39.4161 165.253C38.9109 164.835 38.063 164.503 37.6876 165.041C37.4593 165.366 37.581 165.813 37.721 166.183C38.2674 167.632 38.977 169.017 39.8297 170.308C38.7113 169.417 37.2135 169.018 35.8 169.237C35.4182 169.296 34.9751 169.469 34.9099 169.849C34.8486 170.2 35.1548 170.5 35.4412 170.713C36.5779 171.552 37.8896 172.152 39.2673 172.464C38.6278 172.328 37.9501 172.194 37.3328 172.41C36.7171 172.627 36.2247 173.338 36.4848 173.937C36.6885 174.405 37.2326 174.608 37.7273 174.736C39.2458 175.132 44.2548 176.075 45.3533 174.547C45.8743 173.824 45.5633 171.62 45.5489 170.755C45.5235 169.273 45.3946 167.793 45.1623 166.328Z" fill="#2EAE7D"/>
<path d="M41.8732 178.577C42.3354 179.855 43.196 180.942 44.1386 181.937C44.2763 182.084 44.4258 182.231 44.5705 182.373C44.6708 182.483 44.7726 182.58 44.8736 182.682C47.2942 185.089 49.9247 187.504 52.7215 189.65C52.8814 189.775 53.0468 189.902 53.2139 190.021C54.9169 191.307 56.686 192.488 58.5067 193.508C61.1055 194.965 61.9001 193.67 60.7841 191.296C60.388 190.451 59.9712 189.615 59.5289 188.787C59.4398 188.607 59.3396 188.423 59.2449 188.24C58.2538 186.395 57.1704 184.59 56.0011 182.845C55.8857 182.678 55.7704 182.511 55.6551 182.343C55.0473 181.457 54.4197 180.588 53.7691 179.738C53.6466 179.576 53.5233 179.419 53.3936 179.263C52.6547 178.312 51.8855 177.388 51.0956 176.486C50.5038 175.814 49.8746 175.142 49.1849 174.57C49.0099 174.425 48.8342 174.285 48.656 174.163C48.2503 173.868 47.82 173.612 47.3634 173.408C45.8743 172.757 43.9859 172.766 42.7673 173.843C41.485 174.972 41.2965 176.973 41.8732 178.577Z" fill="#F68640"/>
<path d="M57.7853 190.078C58.3644 189.651 58.949 189.22 59.5289 188.787C59.4398 188.607 59.3395 188.423 59.2449 188.24C58.6388 188.686 58.0327 189.133 57.4257 189.579C57.1139 189.82 57.4687 190.311 57.7853 190.078Z" fill="#F46F2E"/>
<path d="M52.7213 189.65C52.8812 189.775 53.0466 189.902 53.2137 190.021C54.3392 189.015 55.5125 188.06 56.7264 187.162C57.0438 186.928 56.6842 186.43 56.3668 186.664C55.1037 187.597 53.8866 188.595 52.7213 189.65Z" fill="#F46F2E"/>
<path d="M52.5355 185.836C53.6022 184.739 54.7635 183.74 56.0012 182.845C55.8859 182.678 55.7705 182.511 55.6552 182.343C54.3681 183.267 53.1686 184.31 52.0645 185.45C51.7885 185.733 52.2594 186.119 52.5355 185.836Z" fill="#F46F2E"/>
<path d="M48.824 183.584C50.3274 182.126 51.9891 180.836 53.7693 179.738C53.6468 179.576 53.5235 179.419 53.3938 179.263C51.5794 180.385 49.8875 181.702 48.3467 183.198C48.0675 183.468 48.544 183.855 48.824 183.584Z" fill="#F46F2E"/>
<path d="M44.1385 181.937C44.2762 182.084 44.4257 182.231 44.5705 182.373C46.0229 180.844 47.7157 179.559 49.5937 178.582C49.9334 178.403 49.7225 177.829 49.3694 178.013C47.4229 179.028 45.6547 180.357 44.1385 181.937Z" fill="#F46F2E"/>
<path d="M44.5101 177.595C44.6533 177.705 44.8211 177.664 44.9444 177.553C46.206 176.365 47.637 175.354 49.1849 174.57C49.0099 174.425 48.8342 174.285 48.656 174.163C47.1343 174.968 45.7287 175.978 44.4679 177.16C44.3502 177.278 44.394 177.502 44.5101 177.595Z" fill="#F46F2E"/>
<path d="M73.5001 180.85C73.5001 181.39 73.1342 181.826 72.6824 181.826H71.4916C71.0397 181.826 70.6731 181.39 70.6731 180.85V169.818C70.6731 169.279 71.0397 168.842 71.4916 168.842H72.6824C73.1342 168.842 73.5001 169.279 73.5001 169.818V180.85ZM73.5001 197.081C73.5001 197.621 73.1342 198.058 72.6824 198.058H71.4916C71.0397 198.058 70.6731 197.621 70.6731 197.081V186.049C70.6731 185.51 71.0397 185.073 71.4916 185.073H72.6824C73.1342 185.073 73.5001 185.51 73.5001 186.049V197.081ZM68.1444 180.85C68.1444 181.39 67.7776 181.826 67.325 181.826H66.1351C65.6832 181.826 65.3174 181.39 65.3174 180.85V169.818C65.3174 169.279 65.6832 168.842 66.1351 168.842H67.325C67.7776 168.842 68.1444 169.279 68.1444 169.818V180.85ZM68.1444 197.081C68.1444 197.621 67.7776 198.058 67.325 198.058H66.1351C65.6832 198.058 65.3174 197.621 65.3174 197.081V186.049C65.3174 185.51 65.6832 185.073 66.1351 185.073H67.325C67.7776 185.073 68.1444 185.51 68.1444 186.049V197.081ZM62.787 180.85C62.787 181.39 62.4211 181.826 61.9693 181.826H60.7793C60.3275 181.826 59.9608 181.39 59.9608 180.85V169.818C59.9608 169.279 60.3275 168.842 60.7793 168.842H61.9693C62.4211 168.842 62.787 169.279 62.787 169.818V180.85ZM62.787 197.081C62.787 197.621 62.4211 198.058 61.9693 198.058H60.7793C60.3275 198.058 59.9608 197.621 59.9608 197.081V186.049C59.9608 185.51 60.3275 185.073 60.7793 185.073H61.9693C62.4211 185.073 62.787 185.51 62.787 186.049V197.081ZM57.4313 180.85C57.4313 181.39 57.0646 181.826 56.6136 181.826H55.4228C54.9702 181.826 54.6043 181.39 54.6043 180.85V169.818C54.6043 169.279 54.9702 168.842 55.4228 168.842H56.6136C57.0646 168.842 57.4313 169.279 57.4313 169.818V180.85ZM57.4313 197.081C57.4313 197.621 57.0646 198.058 56.6136 198.058H55.4228C54.9702 198.058 54.6043 197.621 54.6043 197.081V186.049C54.6043 185.51 54.9702 185.073 55.4228 185.073H56.6136C57.0646 185.073 57.4313 185.51 57.4313 186.049V197.081ZM52.0756 180.85C52.0756 181.39 51.7089 181.826 51.2563 181.826H50.0663C49.6145 181.826 49.2478 181.39 49.2478 180.85V169.818C49.2478 169.279 49.6145 168.842 50.0663 168.842H51.2563C51.7089 168.842 52.0756 169.279 52.0756 169.818V180.85ZM52.0756 197.081C52.0756 197.621 51.7089 198.058 51.2563 198.058H50.0663C49.6145 198.058 49.2478 197.621 49.2478 197.081V186.049C49.2478 185.51 49.6145 185.073 50.0663 185.073H51.2563C51.7089 185.073 52.0756 185.51 52.0756 186.049V197.081ZM46.7183 180.85C46.7183 181.39 46.3524 181.826 45.9006 181.826H44.7098C44.2572 181.826 43.8921 181.39 43.8921 180.85V169.818C43.8921 169.279 44.2572 168.842 44.7098 168.842H45.9006C46.3524 168.842 46.7183 169.279 46.7183 169.818V180.85ZM46.7183 197.081C46.7183 197.621 46.3524 198.058 45.9006 198.058H44.7098C44.2572 198.058 43.8921 197.621 43.8921 197.081V186.049C43.8921 185.51 44.2572 185.073 44.7098 185.073H45.9006C46.3524 185.073 46.7183 185.51 46.7183 186.049V197.081ZM41.3626 180.85C41.3626 181.39 40.9959 181.826 40.5441 181.826H39.3533C38.9015 181.826 38.5356 181.39 38.5356 180.85V169.818C38.5356 169.279 38.9015 168.842 39.3533 168.842H40.5441C40.9959 168.842 41.3626 169.279 41.3626 169.818V180.85ZM41.3626 197.081C41.3626 197.621 40.9959 198.058 40.5441 198.058H39.3533C38.9015 198.058 38.5356 197.621 38.5356 197.081V186.049C38.5356 185.51 38.9015 185.073 39.3533 185.073H40.5441C40.9959 185.073 41.3626 185.51 41.3626 186.049V197.081ZM36.0053 180.85C36.0053 181.39 35.6393 181.826 35.1875 181.826H33.9975C33.5457 181.826 33.179 181.39 33.179 180.85V169.818C33.179 169.279 33.5457 168.842 33.9975 168.842H35.1875C35.6393 168.842 36.0053 169.279 36.0053 169.818V180.85ZM36.0053 197.081C36.0053 197.621 35.6393 198.058 35.1875 198.058H33.9975C33.5457 198.058 33.179 197.621 33.179 197.081V186.049C33.179 185.51 33.5457 185.073 33.9975 185.073H35.1875C35.6393 185.073 36.0053 185.51 36.0053 186.049V197.081ZM30.6495 180.85C30.6495 181.39 30.2828 181.826 29.831 181.826H28.641C28.1884 181.826 27.8225 181.39 27.8225 180.85V169.818C27.8225 169.279 28.1884 168.842 28.641 168.842H29.831C30.2828 168.842 30.6495 169.279 30.6495 169.818V180.85ZM30.6495 197.081C30.6495 197.621 30.2828 198.058 29.831 198.058H28.641C28.1884 198.058 27.8225 197.621 27.8225 197.081V186.049C27.8225 185.51 28.1884 185.073 28.641 185.073H29.831C30.2828 185.073 30.6495 185.51 30.6495 186.049V197.081ZM25.293 180.85C25.293 181.39 24.9271 181.826 24.4745 181.826H23.2845C22.8327 181.826 22.466 181.39 22.466 180.85V169.818C22.466 169.279 22.8327 168.842 23.2845 168.842H24.4745C24.9271 168.842 25.293 169.279 25.293 169.818V180.85ZM25.293 197.081C25.293 197.621 24.9271 198.058 24.4745 198.058H23.2845C22.8327 198.058 22.466 197.621 22.466 197.081V186.049C22.466 185.51 22.8327 185.073 23.2845 185.073H24.4745C24.9271 185.073 25.293 185.51 25.293 186.049V197.081ZM19.9365 180.85C19.9365 181.39 19.5706 181.826 19.1188 181.826H17.928C17.4762 181.826 17.1103 181.39 17.1103 180.85V169.818C17.1103 169.279 17.4762 168.842 17.928 168.842H19.1188C19.5706 168.842 19.9365 169.279 19.9365 169.818V180.85ZM19.9365 197.081C19.9365 197.621 19.5706 198.058 19.1188 198.058H17.928C17.4762 198.058 17.1103 197.621 17.1103 197.081V186.049C17.1103 185.51 17.4762 185.073 17.928 185.073H19.1188C19.5706 185.073 19.9365 185.51 19.9365 186.049V197.081ZM45.2053 165.378H13.5013C13.5013 165.378 14.7382 199.612 15.1757 200.278C15.6132 200.944 37.6884 202.065 45.2053 202.054C52.7541 202.043 74.9231 200.855 75.3598 200.189C75.7973 199.523 76.9085 165.378 76.9085 165.378H45.2053Z" fill="#DCDDDA"/>
<path d="M79.7984 166.981H10.6123V160.716H79.7984V166.981Z" fill="#BCBEBC"/>
<path d="M52.2696 163.78C51.191 163.78 50.4464 162.255 50.8219 160.821C51.3636 158.759 52.0008 156.08 52.159 154.353C52.4454 151.213 49.9207 144.283 49.9207 144.283H53.2353C53.2353 144.283 55.3973 151.775 55.3289 154.032C55.2795 155.658 54.2837 160 53.7316 162.301C53.5177 163.188 52.9306 163.78 52.2696 163.78Z" fill="#DCDDDA"/>
<path d="M61.582 152.821C60.2464 153.513 56.5412 143.81 56.5412 143.81L53.6561 143.823L54.8255 148.022L53.404 154.213C53.404 154.213 52.1941 154.464 50.6947 154.684C50.5086 154.713 50.3177 154.738 50.1236 154.765C49.2271 154.886 48.2702 154.982 47.435 155C47.3546 155.006 47.2719 155.005 47.1939 155.009C46.7755 155.008 45.4456 154.793 45.2738 154.654L45.3088 149.703C45.3088 149.703 40.0421 145.362 39.6651 144.395C39.5171 144.011 41.4135 135.57 41.6513 134.637L46.004 133.559C46.004 133.559 54.03 138.169 54.4707 138.452C56.0679 139.48 57.7113 140.7 58.7645 141.916C59.2131 142.43 59.552 142.944 59.7349 143.442C61.0052 146.874 62.9151 152.131 61.582 152.821Z" fill="#F68672"/>
<path d="M47.4349 155C47.3545 155.006 47.2718 155.005 47.1938 155.009C47.2209 154.804 47.2623 154.537 47.3076 154.214C47.4094 153.484 47.5311 152.494 47.6409 151.421C47.7419 150.347 47.7698 149.373 47.7069 148.638C47.6902 148.453 47.6727 148.285 47.66 148.137C47.6322 147.99 47.6107 147.862 47.59 147.758C47.5558 147.545 47.5359 147.421 47.5359 147.421C47.5359 147.421 47.6091 147.521 47.7355 147.712C47.7992 147.806 47.8756 147.925 47.9607 148.063C48.0307 148.208 48.1086 148.372 48.1922 148.561C48.5135 149.306 48.7521 150.431 48.64 151.61C48.5191 152.785 48.1341 153.756 47.7881 154.408C47.6592 154.649 47.5375 154.845 47.4349 155Z" fill="#D03B58"/>
<path d="M50.6946 154.684C50.5084 154.713 50.3175 154.738 50.1234 154.765L50.1393 154.637C50.2404 153.906 50.3613 152.916 50.4703 151.845C50.5737 150.768 50.6007 149.795 50.5387 149.06C50.5212 148.875 50.5068 148.71 50.4909 148.563C50.4647 148.414 50.44 148.286 50.4233 148.182C50.3875 147.967 50.3668 147.848 50.3668 147.848C50.3668 147.848 50.4384 147.945 50.5665 148.134C50.6277 148.229 50.7073 148.347 50.7892 148.487C50.8616 148.629 50.9403 148.797 51.0231 148.982C51.3452 149.731 51.583 150.857 51.4693 152.033C51.3595 153.124 51.0199 154.04 50.6946 154.684Z" fill="#D03B58"/>
<path d="M46.3063 55.6269C46.3063 55.6269 37.6336 59.064 36.1954 60.6685C34.7564 62.2721 22.4661 105.563 22.4661 108.498C22.4661 111.433 22.4661 116.385 22.4661 116.385C22.4661 116.385 22.466 131.27 23.3832 132.633C24.3011 133.996 34.3858 140.965 34.3858 140.965C34.3858 140.965 34.6642 144.6 35.5813 145.259C36.4993 145.919 39.6651 144.395 39.6651 144.395C39.6651 144.395 45.3454 134.749 46.7 133.959C46.7 133.959 47.9902 131.06 47.9314 130.326C47.8717 129.592 44.1116 127.3 44.1116 127.3L41.563 111.8C41.563 111.8 49.1269 85.752 49.9208 81.533C50.7154 77.3139 46.3063 55.6269 46.3063 55.6269Z" fill="#F1435B"/>
<path d="M42.2766 63.7397C42.2766 63.7397 48.5845 68.6921 50.0171 72.1777C51.4489 75.6634 50.6614 85.6526 50.6614 85.6526C50.6614 85.6526 53.7636 74.9292 53.2482 71.8111C52.7327 68.6921 42.2766 63.7397 42.2766 63.7397Z" fill="#EF2D2E"/>
<path d="M47.9314 92.7113L41.5631 111.8C41.5631 111.8 46.1982 120.1 46.4734 120.994C46.7478 121.888 44.7473 125.81 44.7473 125.81C44.7473 125.81 46.4734 126.978 47.023 127.598C47.5735 128.217 45.9913 132.207 45.9913 132.207L39.6652 144.395C39.6652 144.395 47.8065 134.017 47.9314 133.559C48.0555 133.102 49.4992 128.148 49.4992 127.323C49.4992 126.498 47.194 124.915 47.194 124.915C47.194 124.915 49.1564 121.407 49.018 120.651C48.8804 119.893 43.6527 111.088 43.6527 111.088L47.9314 92.7113Z" fill="#EF2D2E"/>
<path d="M96.0239 129.409C96.0239 129.409 56.2923 131.977 54.6043 132.528C52.9156 133.078 94.5555 139.498 94.5555 139.498L70.9984 133.559L96.0239 129.409Z" fill="#EF2D2E"/>
<path d="M107.561 119.898C107.459 119.982 107.362 120.06 107.255 120.14C106.336 120.831 105.34 121.448 104.291 121.961C102.212 122.984 99.9375 123.606 97.6665 123.622C97.0715 123.629 96.4813 123.598 95.8943 123.508C95.413 123.453 94.9414 123.354 94.4641 123.227C91.9211 122.545 89.7861 121.013 88.1379 118.996C87.7617 118.54 87.4125 118.056 87.0903 117.544C85.9266 115.724 85.1065 113.634 84.6889 111.481C84.4924 110.459 84.3771 109.43 84.3651 108.403C84.3612 108.229 84.3627 108.059 84.3707 107.896C84.4168 101.654 87.1993 95.7356 90.3699 90.3608C94.9636 82.5845 101.188 71.9789 109.8 68.0199C111.973 67.0232 114.384 66.8952 116.715 67.4067C117.626 67.6055 118.528 67.903 119.393 68.2824C119.834 68.4702 120.264 68.6786 120.679 68.9156C121.17 69.1837 121.652 69.4732 122.111 69.797C122.522 70.0825 122.916 70.3856 123.295 70.7046C123.684 71.0347 124.063 71.387 124.414 71.7561C124.922 72.2748 125.388 72.8276 125.804 73.4083C126.142 73.8808 126.447 74.366 126.703 74.8679C127.034 75.4725 127.298 76.0889 127.508 76.7285C129.421 82.6553 127.048 89.0507 124.351 94.6554C121.859 99.8584 119.058 104.903 115.98 109.78C113.626 113.511 111.041 117.202 107.561 119.898Z" fill="#20795A"/>
<path d="M84.6889 111.481C84.4924 110.459 84.3771 109.43 84.3651 108.403C84.3612 108.229 84.3627 108.059 84.3707 107.896C84.4741 107.631 84.5783 107.367 84.6921 107.103C88.1713 98.7941 93.0967 90.9733 98.1279 83.5208C102.757 76.6672 108.657 69.972 116.715 67.4067C117.626 67.6055 118.528 67.903 119.393 68.2825L119.262 68.3183C114.469 69.3611 110.246 71.9964 106.732 75.3643C103.276 78.6813 100.511 82.6179 97.9275 86.6318C95.5395 90.3306 93.2017 94.0668 91.023 97.8913C88.5515 102.236 86.3124 106.762 84.6889 111.481Z" fill="#51C292"/>
<path d="M88.1377 118.996C87.7614 118.54 87.4122 118.056 87.0901 117.544C88.0733 115.29 89.0461 113.036 90.0293 110.781C91.9169 106.444 93.5427 101.812 96.0603 97.7887C98.4936 93.9085 101.793 90.6655 104.242 86.7909C106.656 82.9656 108.841 79.0202 112.047 75.7843C114.644 73.1625 117.628 70.9854 120.679 68.9157C121.17 69.1837 121.651 69.4733 122.111 69.797C118.339 72.3512 114.62 75.0302 111.641 78.5071C108.723 81.9108 106.753 85.9779 104.206 89.6417C101.616 93.3716 98.3265 96.5494 96.2361 100.618C94.1353 104.709 92.4601 109.059 90.6243 113.275C89.7962 115.187 88.9689 117.089 88.1377 118.996Z" fill="#51C292"/>
<path d="M97.6663 123.622C97.0713 123.629 96.4811 123.598 95.894 123.508C97.7745 120.787 99.4536 117.928 100.99 114.995C104.986 107.363 107.99 99.2944 111.369 91.3925C114.508 84.0521 118.108 76.8223 123.295 70.7046C123.684 71.0347 124.063 71.3871 124.414 71.7561C121.587 75.0986 119.227 78.8022 117.18 82.668C113.162 90.2343 110.268 98.3335 106.861 106.177C104.239 112.217 101.327 118.16 97.6663 123.622Z" fill="#51C292"/>
<path d="M107.561 119.898C107.459 119.982 107.362 120.06 107.255 120.14C106.336 120.831 105.34 121.448 104.291 121.961C105.118 120.808 105.911 119.634 106.677 118.433C111.384 111.085 114.931 103.141 117.481 94.8097C119.72 87.4948 121.603 79.8808 125.804 73.4083C126.142 73.8808 126.447 74.366 126.703 74.868C124.662 78.1826 123.179 81.8066 121.948 85.5022C120.594 89.5503 119.504 93.6794 118.171 97.737C116.841 101.806 115.25 105.788 113.378 109.639C111.658 113.177 109.712 116.603 107.561 119.898Z" fill="#51C292"/>
<path d="M110.046 101.789C109.463 102.847 112.553 108.095 111.617 106.492C110.681 104.888 104.834 100.66 103.848 101.597C102.86 102.533 107.983 111.566 107.983 111.566C107.983 111.566 102.413 105.482 100.874 107.663C100.372 108.376 100.73 109.821 101.431 111.438C99.5786 110.759 97.9575 110.548 97.9289 111.887C97.8605 115.039 105.793 118.837 105.793 118.837C115.423 122.265 116.766 106.103 116.766 106.103C116.766 106.103 110.629 100.731 110.046 101.789Z" fill="#F68672"/>
<path d="M41.8589 30.8712L30.1635 20.1239L26.3779 28.1142L41.8589 30.8712Z" fill="white"/>
<path d="M46.8774 29.6748L48.0531 19.7652L42.6019 20.4683L46.8774 29.6748Z" fill="white"/>
<path d="M41.3499 37.8162L30.757 37.8329L31.2302 42.8529L41.3499 37.8162Z" fill="white"/>
</svg>
