<svg width="32" height="31" viewBox="0 0 32 31" fill="none" xmlns="http://www.w3.org/2000/svg">
<rect width="31.283" height="30.7037" rx="8.68973" fill="black" fill-opacity="0.56"/>
<path d="M15.6552 22.069C15.5568 22.0695 15.4594 22.0507 15.3683 22.0135C15.2773 21.9763 15.1945 21.9216 15.1247 21.8523L9.31952 16.0397C8.59134 15.3039 8.18289 14.3105 8.18289 13.2753C8.18289 12.2401 8.59134 11.2467 9.31952 10.5109C10.0534 9.77913 11.0475 9.36818 12.0839 9.36818C13.1203 9.36818 14.1144 9.77913 14.8483 10.5109L15.6552 11.3178L16.4621 10.5109C17.1959 9.77913 18.19 9.36818 19.2264 9.36818C20.2628 9.36818 21.2569 9.77913 21.9908 10.5109C22.719 11.2467 23.1274 12.2401 23.1274 13.2753C23.1274 14.3105 22.719 15.3039 21.9908 16.0397L16.1856 21.8523C16.1158 21.9216 16.033 21.9763 15.942 22.0135C15.851 22.0507 15.7535 22.0695 15.6552 22.069ZM12.0839 10.8621C11.7676 10.8606 11.4542 10.922 11.1618 11.0425C10.8694 11.1631 10.6038 11.3405 10.3804 11.5644C9.92922 12.018 9.67593 12.6318 9.67593 13.2716C9.67593 13.9114 9.92922 14.5252 10.3804 14.9787L15.6552 20.2609L20.9299 14.9787C21.3811 14.5252 21.6344 13.9114 21.6344 13.2716C21.6344 12.6318 21.3811 12.018 20.9299 11.5644C20.4694 11.1293 19.8599 10.887 19.2264 10.887C18.5929 10.887 17.9835 11.1293 17.523 11.5644L16.1856 12.9092C16.1162 12.9792 16.0335 13.0348 15.9425 13.0727C15.8514 13.1107 15.7538 13.1302 15.6552 13.1302C15.5565 13.1302 15.4589 13.1107 15.3678 13.0727C15.2768 13.0348 15.1942 12.9792 15.1247 12.9092L13.7873 11.5644C13.564 11.3405 13.2984 11.1631 13.006 11.0425C12.7136 10.922 12.4002 10.8606 12.0839 10.8621Z" fill="white"/>
</svg>
